ISO-10303-21;
HEADER;
/* Generated by software containing ST-Developer
 * from STEP Tools, Inc. (www.steptools.com) 
 */

FILE_DESCRIPTION(
/* description */ (''),
/* implementation_level */ '2;1');

FILE_NAME(
/* name */ 'HackpadTop.step',
/* time_stamp */ '2026-09-12T15:21:23-04:00',
/* author */ (''),
/* organization */ (''),
/* preprocessor_version */ 'ST-DEVELOPER v20.1',
/* originating_system */ 'Autodesk Translation Framework v15.8.0.0',
/* authorisation */ '');

FILE_SCHEMA (('AUTOMOTIVE_DESIGN { 1 0 10303 214 3 1 1 }'));
ENDSEC;

DATA;
#10=MECHANICAL_DESIGN_GEOMETRIC_PRESENTATION_REPRESENTATION('',(#13),#1575);
#11=SHAPE_REPRESENTATION_RELATIONSHIP('SRR','None',#1582,#12);
#12=ADVANCED_BREP_SHAPE_REPRESENTATION('',(#14),#1574);
#13=STYLED_ITEM('',(#1591),#14);
#14=MANIFOLD_SOLID_BREP('Body2',#939);
#15=FACE_BOUND('',#182,.T.);
#16=FACE_BOUND('',#183,.T.);
#17=FACE_BOUND('',#184,.T.);
#18=FACE_BOUND('',#185,.T.);
#19=FACE_BOUND('',#186,.T.);
#20=FACE_BOUND('',#187,.T.);
#21=FACE_BOUND('',#188,.T.);
#22=FACE_BOUND('',#189,.T.);
#23=FACE_BOUND('',#191,.T.);
#24=FACE_BOUND('',#192,.T.);
#25=FACE_BOUND('',#193,.T.);
#26=FACE_BOUND('',#194,.T.);
#27=FACE_BOUND('',#195,.T.);
#28=FACE_BOUND('',#196,.T.);
#29=FACE_BOUND('',#197,.T.);
#30=FACE_BOUND('',#198,.T.);
#31=CIRCLE('',#955,0.499999999999998);
#32=CIRCLE('',#956,0.499999999999998);
#33=CIRCLE('',#959,0.500000000000003);
#34=CIRCLE('',#960,0.500000000000003);
#35=CIRCLE('',#963,0.500000000000003);
#36=CIRCLE('',#964,0.500000000000003);
#37=CIRCLE('',#967,0.499999999999998);
#38=CIRCLE('',#968,0.499999999999998);
#39=CIRCLE('',#971,0.499999999999998);
#40=CIRCLE('',#972,0.499999999999998);
#41=CIRCLE('',#975,0.499999999999998);
#42=CIRCLE('',#976,0.499999999999998);
#43=CIRCLE('',#979,0.500000000000003);
#44=CIRCLE('',#980,0.500000000000003);
#45=CIRCLE('',#983,0.499999999999998);
#46=CIRCLE('',#984,0.499999999999998);
#47=CIRCLE('',#986,1.7);
#48=CIRCLE('',#987,1.7);
#49=CIRCLE('',#989,1.7);
#50=CIRCLE('',#990,1.7);
#51=CIRCLE('',#992,1.7);
#52=CIRCLE('',#993,1.7);
#53=CIRCLE('',#996,0.5);
#54=CIRCLE('',#997,0.5);
#55=CIRCLE('',#1000,0.499999999999998);
#56=CIRCLE('',#1001,0.499999999999998);
#57=CIRCLE('',#1004,0.499999999999998);
#58=CIRCLE('',#1005,0.499999999999998);
#59=CIRCLE('',#1008,0.499999999999998);
#60=CIRCLE('',#1009,0.499999999999998);
#61=CIRCLE('',#1011,1.7);
#62=CIRCLE('',#1012,1.7);
#63=CIRCLE('',#1015,0.499999999999998);
#64=CIRCLE('',#1016,0.499999999999998);
#65=CIRCLE('',#1019,0.499999999999998);
#66=CIRCLE('',#1020,0.499999999999998);
#67=CIRCLE('',#1023,0.499999999999998);
#68=CIRCLE('',#1024,0.499999999999998);
#69=CIRCLE('',#1027,0.499999999999998);
#70=CIRCLE('',#1028,0.499999999999998);
#71=CYLINDRICAL_SURFACE('',#954,0.499999999999998);
#72=CYLINDRICAL_SURFACE('',#958,0.500000000000003);
#73=CYLINDRICAL_SURFACE('',#962,0.500000000000003);
#74=CYLINDRICAL_SURFACE('',#966,0.499999999999998);
#75=CYLINDRICAL_SURFACE('',#970,0.499999999999998);
#76=CYLINDRICAL_SURFACE('',#974,0.499999999999998);
#77=CYLINDRICAL_SURFACE('',#978,0.500000000000003);
#78=CYLINDRICAL_SURFACE('',#982,0.499999999999998);
#79=CYLINDRICAL_SURFACE('',#985,1.7);
#80=CYLINDRICAL_SURFACE('',#988,1.7);
#81=CYLINDRICAL_SURFACE('',#991,1.7);
#82=CYLINDRICAL_SURFACE('',#995,0.5);
#83=CYLINDRICAL_SURFACE('',#999,0.499999999999998);
#84=CYLINDRICAL_SURFACE('',#1003,0.499999999999998);
#85=CYLINDRICAL_SURFACE('',#1007,0.499999999999998);
#86=CYLINDRICAL_SURFACE('',#1010,1.7);
#87=CYLINDRICAL_SURFACE('',#1014,0.499999999999998);
#88=CYLINDRICAL_SURFACE('',#1018,0.499999999999998);
#89=CYLINDRICAL_SURFACE('',#1022,0.499999999999998);
#90=CYLINDRICAL_SURFACE('',#1026,0.499999999999998);
#91=FACE_OUTER_BOUND('',#137,.T.);
#92=FACE_OUTER_BOUND('',#138,.T.);
#93=FACE_OUTER_BOUND('',#139,.T.);
#94=FACE_OUTER_BOUND('',#140,.T.);
#95=FACE_OUTER_BOUND('',#141,.T.);
#96=FACE_OUTER_BOUND('',#142,.T.);
#97=FACE_OUTER_BOUND('',#143,.T.);
#98=FACE_OUTER_BOUND('',#144,.T.);
#99=FACE_OUTER_BOUND('',#145,.T.);
#100=FACE_OUTER_BOUND('',#146,.T.);
#101=FACE_OUTER_BOUND('',#147,.T.);
#102=FACE_OUTER_BOUND('',#148,.T.);
#103=FACE_OUTER_BOUND('',#149,.T.);
#104=FACE_OUTER_BOUND('',#150,.T.);
#105=FACE_OUTER_BOUND('',#151,.T.);
#106=FACE_OUTER_BOUND('',#152,.T.);
#107=FACE_OUTER_BOUND('',#153,.T.);
#108=FACE_OUTER_BOUND('',#154,.T.);
#109=FACE_OUTER_BOUND('',#155,.T.);
#110=FACE_OUTER_BOUND('',#156,.T.);
#111=FACE_OUTER_BOUND('',#157,.T.);
#112=FACE_OUTER_BOUND('',#158,.T.);
#113=FACE_OUTER_BOUND('',#159,.T.);
#114=FACE_OUTER_BOUND('',#160,.T.);
#115=FACE_OUTER_BOUND('',#161,.T.);
#116=FACE_OUTER_BOUND('',#162,.T.);
#117=FACE_OUTER_BOUND('',#163,.T.);
#118=FACE_OUTER_BOUND('',#164,.T.);
#119=FACE_OUTER_BOUND('',#165,.T.);
#120=FACE_OUTER_BOUND('',#166,.T.);
#121=FACE_OUTER_BOUND('',#167,.T.);
#122=FACE_OUTER_BOUND('',#168,.T.);
#123=FACE_OUTER_BOUND('',#169,.T.);
#124=FACE_OUTER_BOUND('',#170,.T.);
#125=FACE_OUTER_BOUND('',#171,.T.);
#126=FACE_OUTER_BOUND('',#172,.T.);
#127=FACE_OUTER_BOUND('',#173,.T.);
#128=FACE_OUTER_BOUND('',#174,.T.);
#129=FACE_OUTER_BOUND('',#175,.T.);
#130=FACE_OUTER_BOUND('',#176,.T.);
#131=FACE_OUTER_BOUND('',#177,.T.);
#132=FACE_OUTER_BOUND('',#178,.T.);
#133=FACE_OUTER_BOUND('',#179,.T.);
#134=FACE_OUTER_BOUND('',#180,.T.);
#135=FACE_OUTER_BOUND('',#181,.T.);
#136=FACE_OUTER_BOUND('',#190,.T.);
#137=EDGE_LOOP('',(#603,#604,#605,#606));
#138=EDGE_LOOP('',(#607,#608,#609,#610));
#139=EDGE_LOOP('',(#611,#612,#613,#614));
#140=EDGE_LOOP('',(#615,#616,#617,#618));
#141=EDGE_LOOP('',(#619,#620,#621,#622));
#142=EDGE_LOOP('',(#623,#624,#625,#626));
#143=EDGE_LOOP('',(#627,#628,#629,#630));
#144=EDGE_LOOP('',(#631,#632,#633,#634));
#145=EDGE_LOOP('',(#635,#636,#637,#638));
#146=EDGE_LOOP('',(#639,#640,#641,#642));
#147=EDGE_LOOP('',(#643,#644,#645,#646));
#148=EDGE_LOOP('',(#647,#648,#649,#650));
#149=EDGE_LOOP('',(#651,#652,#653,#654));
#150=EDGE_LOOP('',(#655,#656,#657,#658));
#151=EDGE_LOOP('',(#659,#660,#661,#662));
#152=EDGE_LOOP('',(#663,#664,#665,#666));
#153=EDGE_LOOP('',(#667,#668,#669,#670));
#154=EDGE_LOOP('',(#671,#672,#673,#674));
#155=EDGE_LOOP('',(#675,#676,#677,#678));
#156=EDGE_LOOP('',(#679,#680,#681,#682));
#157=EDGE_LOOP('',(#683,#684,#685,#686));
#158=EDGE_LOOP('',(#687,#688,#689,#690));
#159=EDGE_LOOP('',(#691,#692,#693,#694));
#160=EDGE_LOOP('',(#695,#696,#697,#698));
#161=EDGE_LOOP('',(#699,#700,#701,#702));
#162=EDGE_LOOP('',(#703,#704,#705,#706));
#163=EDGE_LOOP('',(#707,#708,#709,#710));
#164=EDGE_LOOP('',(#711,#712,#713,#714));
#165=EDGE_LOOP('',(#715,#716,#717,#718));
#166=EDGE_LOOP('',(#719,#720,#721,#722));
#167=EDGE_LOOP('',(#723,#724,#725,#726));
#168=EDGE_LOOP('',(#727,#728,#729,#730));
#169=EDGE_LOOP('',(#731,#732,#733,#734));
#170=EDGE_LOOP('',(#735,#736,#737,#738));
#171=EDGE_LOOP('',(#739,#740,#741,#742));
#172=EDGE_LOOP('',(#743,#744,#745,#746));
#173=EDGE_LOOP('',(#747,#748,#749,#750));
#174=EDGE_LOOP('',(#751,#752,#753,#754));
#175=EDGE_LOOP('',(#755,#756,#757,#758));
#176=EDGE_LOOP('',(#759,#760,#761,#762));
#177=EDGE_LOOP('',(#763,#764,#765,#766));
#178=EDGE_LOOP('',(#767,#768,#769,#770));
#179=EDGE_LOOP('',(#771,#772,#773,#774));
#180=EDGE_LOOP('',(#775,#776,#777,#778));
#181=EDGE_LOOP('',(#779,#780,#781,#782,#783,#784,#785,#786));
#182=EDGE_LOOP('',(#787,#788,#789,#790,#791,#792,#793,#794));
#183=EDGE_LOOP('',(#795));
#184=EDGE_LOOP('',(#796,#797,#798,#799,#800,#801,#802,#803));
#185=EDGE_LOOP('',(#804));
#186=EDGE_LOOP('',(#805));
#187=EDGE_LOOP('',(#806));
#188=EDGE_LOOP('',(#807,#808,#809,#810,#811,#812,#813,#814));
#189=EDGE_LOOP('',(#815,#816,#817,#818,#819,#820,#821,#822));
#190=EDGE_LOOP('',(#823,#824,#825,#826,#827,#828,#829,#830));
#191=EDGE_LOOP('',(#831,#832,#833,#834,#835,#836,#837,#838));
#192=EDGE_LOOP('',(#839));
#193=EDGE_LOOP('',(#840,#841,#842,#843,#844,#845,#846,#847));
#194=EDGE_LOOP('',(#848));
#195=EDGE_LOOP('',(#849));
#196=EDGE_LOOP('',(#850));
#197=EDGE_LOOP('',(#851,#852,#853,#854,#855,#856,#857,#858));
#198=EDGE_LOOP('',(#859,#860,#861,#862,#863,#864,#865,#866));
#199=LINE('',#1309,#291);
#200=LINE('',#1311,#292);
#201=LINE('',#1313,#293);
#202=LINE('',#1314,#294);
#203=LINE('',#1320,#295);
#204=LINE('',#1323,#296);
#205=LINE('',#1325,#297);
#206=LINE('',#1326,#298);
#207=LINE('',#1332,#299);
#208=LINE('',#1335,#300);
#209=LINE('',#1337,#301);
#210=LINE('',#1338,#302);
#211=LINE('',#1344,#303);
#212=LINE('',#1347,#304);
#213=LINE('',#1349,#305);
#214=LINE('',#1350,#306);
#215=LINE('',#1357,#307);
#216=LINE('',#1359,#308);
#217=LINE('',#1361,#309);
#218=LINE('',#1362,#310);
#219=LINE('',#1368,#311);
#220=LINE('',#1371,#312);
#221=LINE('',#1373,#313);
#222=LINE('',#1374,#314);
#223=LINE('',#1380,#315);
#224=LINE('',#1383,#316);
#225=LINE('',#1385,#317);
#226=LINE('',#1386,#318);
#227=LINE('',#1392,#319);
#228=LINE('',#1395,#320);
#229=LINE('',#1397,#321);
#230=LINE('',#1398,#322);
#231=LINE('',#1406,#323);
#232=LINE('',#1412,#324);
#233=LINE('',#1418,#325);
#234=LINE('',#1423,#326);
#235=LINE('',#1425,#327);
#236=LINE('',#1427,#328);
#237=LINE('',#1428,#329);
#238=LINE('',#1434,#330);
#239=LINE('',#1437,#331);
#240=LINE('',#1439,#332);
#241=LINE('',#1440,#333);
#242=LINE('',#1446,#334);
#243=LINE('',#1449,#335);
#244=LINE('',#1451,#336);
#245=LINE('',#1452,#337);
#246=LINE('',#1458,#338);
#247=LINE('',#1461,#339);
#248=LINE('',#1463,#340);
#249=LINE('',#1464,#341);
#250=LINE('',#1472,#342);
#251=LINE('',#1477,#343);
#252=LINE('',#1479,#344);
#253=LINE('',#1481,#345);
#254=LINE('',#1482,#346);
#255=LINE('',#1488,#347);
#256=LINE('',#1491,#348);
#257=LINE('',#1493,#349);
#258=LINE('',#1494,#350);
#259=LINE('',#1500,#351);
#260=LINE('',#1503,#352);
#261=LINE('',#1505,#353);
#262=LINE('',#1506,#354);
#263=LINE('',#1512,#355);
#264=LINE('',#1515,#356);
#265=LINE('',#1517,#357);
#266=LINE('',#1518,#358);
#267=LINE('',#1525,#359);
#268=LINE('',#1527,#360);
#269=LINE('',#1529,#361);
#270=LINE('',#1530,#362);
#271=LINE('',#1533,#363);
#272=LINE('',#1535,#364);
#273=LINE('',#1536,#365);
#274=LINE('',#1539,#366);
#275=LINE('',#1541,#367);
#276=LINE('',#1542,#368);
#277=LINE('',#1545,#369);
#278=LINE('',#1547,#370);
#279=LINE('',#1548,#371);
#280=LINE('',#1551,#372);
#281=LINE('',#1553,#373);
#282=LINE('',#1554,#374);
#283=LINE('',#1557,#375);
#284=LINE('',#1559,#376);
#285=LINE('',#1560,#377);
#286=LINE('',#1563,#378);
#287=LINE('',#1565,#379);
#288=LINE('',#1566,#380);
#289=LINE('',#1568,#381);
#290=LINE('',#1569,#382);
#291=VECTOR('',#1043,10.);
#292=VECTOR('',#1044,10.);
#293=VECTOR('',#1045,10.);
#294=VECTOR('',#1046,10.);
#295=VECTOR('',#1053,10.);
#296=VECTOR('',#1056,10.);
#297=VECTOR('',#1057,10.);
#298=VECTOR('',#1058,10.);
#299=VECTOR('',#1065,10.);
#300=VECTOR('',#1068,10.);
#301=VECTOR('',#1069,10.);
#302=VECTOR('',#1070,10.);
#303=VECTOR('',#1077,10.);
#304=VECTOR('',#1080,10.);
#305=VECTOR('',#1081,10.);
#306=VECTOR('',#1082,10.);
#307=VECTOR('',#1091,10.);
#308=VECTOR('',#1092,10.);
#309=VECTOR('',#1093,10.);
#310=VECTOR('',#1094,10.);
#311=VECTOR('',#1101,10.);
#312=VECTOR('',#1104,10.);
#313=VECTOR('',#1105,10.);
#314=VECTOR('',#1106,10.);
#315=VECTOR('',#1113,10.);
#316=VECTOR('',#1116,10.);
#317=VECTOR('',#1117,10.);
#318=VECTOR('',#1118,10.);
#319=VECTOR('',#1125,10.);
#320=VECTOR('',#1128,10.);
#321=VECTOR('',#1129,10.);
#322=VECTOR('',#1130,10.);
#323=VECTOR('',#1141,1.7);
#324=VECTOR('',#1148,1.7);
#325=VECTOR('',#1155,1.7);
#326=VECTOR('',#1160,10.);
#327=VECTOR('',#1161,10.);
#328=VECTOR('',#1162,10.);
#329=VECTOR('',#1163,10.);
#330=VECTOR('',#1170,10.);
#331=VECTOR('',#1173,10.);
#332=VECTOR('',#1174,10.);
#333=VECTOR('',#1175,10.);
#334=VECTOR('',#1182,10.);
#335=VECTOR('',#1185,10.);
#336=VECTOR('',#1186,10.);
#337=VECTOR('',#1187,10.);
#338=VECTOR('',#1194,10.);
#339=VECTOR('',#1197,10.);
#340=VECTOR('',#1198,10.);
#341=VECTOR('',#1199,10.);
#342=VECTOR('',#1210,1.7);
#343=VECTOR('',#1215,10.);
#344=VECTOR('',#1216,10.);
#345=VECTOR('',#1217,10.);
#346=VECTOR('',#1218,10.);
#347=VECTOR('',#1225,10.);
#348=VECTOR('',#1228,10.);
#349=VECTOR('',#1229,10.);
#350=VECTOR('',#1230,10.);
#351=VECTOR('',#1237,10.);
#352=VECTOR('',#1240,10.);
#353=VECTOR('',#1241,10.);
#354=VECTOR('',#1242,10.);
#355=VECTOR('',#1249,10.);
#356=VECTOR('',#1252,10.);
#357=VECTOR('',#1253,10.);
#358=VECTOR('',#1254,10.);
#359=VECTOR('',#1263,10.);
#360=VECTOR('',#1264,10.);
#361=VECTOR('',#1265,10.);
#362=VECTOR('',#1266,10.);
#363=VECTOR('',#1269,10.);
#364=VECTOR('',#1270,10.);
#365=VECTOR('',#1271,10.);
#366=VECTOR('',#1274,10.);
#367=VECTOR('',#1275,10.);
#368=VECTOR('',#1276,10.);
#369=VECTOR('',#1279,10.);
#370=VECTOR('',#1280,10.);
#371=VECTOR('',#1281,10.);
#372=VECTOR('',#1284,10.);
#373=VECTOR('',#1285,10.);
#374=VECTOR('',#1286,10.);
#375=VECTOR('',#1289,10.);
#376=VECTOR('',#1290,10.);
#377=VECTOR('',#1291,10.);
#378=VECTOR('',#1294,10.);
#379=VECTOR('',#1295,10.);
#380=VECTOR('',#1296,10.);
#381=VECTOR('',#1299,10.);
#382=VECTOR('',#1300,10.);
#383=VERTEX_POINT('',#1307);
#384=VERTEX_POINT('',#1308);
#385=VERTEX_POINT('',#1310);
#386=VERTEX_POINT('',#1312);
#387=VERTEX_POINT('',#1316);
#388=VERTEX_POINT('',#1318);
#389=VERTEX_POINT('',#1322);
#390=VERTEX_POINT('',#1324);
#391=VERTEX_POINT('',#1328);
#392=VERTEX_POINT('',#1330);
#393=VERTEX_POINT('',#1334);
#394=VERTEX_POINT('',#1336);
#395=VERTEX_POINT('',#1340);
#396=VERTEX_POINT('',#1342);
#397=VERTEX_POINT('',#1346);
#398=VERTEX_POINT('',#1348);
#399=VERTEX_POINT('',#1355);
#400=VERTEX_POINT('',#1356);
#401=VERTEX_POINT('',#1358);
#402=VERTEX_POINT('',#1360);
#403=VERTEX_POINT('',#1364);
#404=VERTEX_POINT('',#1366);
#405=VERTEX_POINT('',#1370);
#406=VERTEX_POINT('',#1372);
#407=VERTEX_POINT('',#1376);
#408=VERTEX_POINT('',#1378);
#409=VERTEX_POINT('',#1382);
#410=VERTEX_POINT('',#1384);
#411=VERTEX_POINT('',#1388);
#412=VERTEX_POINT('',#1390);
#413=VERTEX_POINT('',#1394);
#414=VERTEX_POINT('',#1396);
#415=VERTEX_POINT('',#1403);
#416=VERTEX_POINT('',#1405);
#417=VERTEX_POINT('',#1409);
#418=VERTEX_POINT('',#1411);
#419=VERTEX_POINT('',#1415);
#420=VERTEX_POINT('',#1417);
#421=VERTEX_POINT('',#1421);
#422=VERTEX_POINT('',#1422);
#423=VERTEX_POINT('',#1424);
#424=VERTEX_POINT('',#1426);
#425=VERTEX_POINT('',#1430);
#426=VERTEX_POINT('',#1432);
#427=VERTEX_POINT('',#1436);
#428=VERTEX_POINT('',#1438);
#429=VERTEX_POINT('',#1442);
#430=VERTEX_POINT('',#1444);
#431=VERTEX_POINT('',#1448);
#432=VERTEX_POINT('',#1450);
#433=VERTEX_POINT('',#1454);
#434=VERTEX_POINT('',#1456);
#435=VERTEX_POINT('',#1460);
#436=VERTEX_POINT('',#1462);
#437=VERTEX_POINT('',#1469);
#438=VERTEX_POINT('',#1471);
#439=VERTEX_POINT('',#1475);
#440=VERTEX_POINT('',#1476);
#441=VERTEX_POINT('',#1478);
#442=VERTEX_POINT('',#1480);
#443=VERTEX_POINT('',#1484);
#444=VERTEX_POINT('',#1486);
#445=VERTEX_POINT('',#1490);
#446=VERTEX_POINT('',#1492);
#447=VERTEX_POINT('',#1496);
#448=VERTEX_POINT('',#1498);
#449=VERTEX_POINT('',#1502);
#450=VERTEX_POINT('',#1504);
#451=VERTEX_POINT('',#1508);
#452=VERTEX_POINT('',#1510);
#453=VERTEX_POINT('',#1514);
#454=VERTEX_POINT('',#1516);
#455=VERTEX_POINT('',#1523);
#456=VERTEX_POINT('',#1524);
#457=VERTEX_POINT('',#1526);
#458=VERTEX_POINT('',#1528);
#459=VERTEX_POINT('',#1532);
#460=VERTEX_POINT('',#1534);
#461=VERTEX_POINT('',#1538);
#462=VERTEX_POINT('',#1540);
#463=VERTEX_POINT('',#1544);
#464=VERTEX_POINT('',#1546);
#465=VERTEX_POINT('',#1550);
#466=VERTEX_POINT('',#1552);
#467=VERTEX_POINT('',#1556);
#468=VERTEX_POINT('',#1558);
#469=VERTEX_POINT('',#1562);
#470=VERTEX_POINT('',#1564);
#471=EDGE_CURVE('',#383,#384,#199,.T.);
#472=EDGE_CURVE('',#384,#385,#200,.T.);
#473=EDGE_CURVE('',#386,#385,#201,.T.);
#474=EDGE_CURVE('',#383,#386,#202,.T.);
#475=EDGE_CURVE('',#387,#383,#31,.T.);
#476=EDGE_CURVE('',#388,#386,#32,.T.);
#477=EDGE_CURVE('',#387,#388,#203,.T.);
#478=EDGE_CURVE('',#389,#387,#204,.T.);
#479=EDGE_CURVE('',#390,#388,#205,.T.);
#480=EDGE_CURVE('',#389,#390,#206,.T.);
#481=EDGE_CURVE('',#391,#389,#33,.T.);
#482=EDGE_CURVE('',#392,#390,#34,.T.);
#483=EDGE_CURVE('',#391,#392,#207,.T.);
#484=EDGE_CURVE('',#393,#391,#208,.T.);
#485=EDGE_CURVE('',#394,#392,#209,.T.);
#486=EDGE_CURVE('',#393,#394,#210,.T.);
#487=EDGE_CURVE('',#395,#393,#35,.T.);
#488=EDGE_CURVE('',#396,#394,#36,.T.);
#489=EDGE_CURVE('',#395,#396,#211,.T.);
#490=EDGE_CURVE('',#397,#395,#212,.T.);
#491=EDGE_CURVE('',#398,#396,#213,.T.);
#492=EDGE_CURVE('',#397,#398,#214,.T.);
#493=EDGE_CURVE('',#384,#397,#37,.T.);
#494=EDGE_CURVE('',#385,#398,#38,.T.);
#495=EDGE_CURVE('',#399,#400,#215,.T.);
#496=EDGE_CURVE('',#400,#401,#216,.T.);
#497=EDGE_CURVE('',#402,#401,#217,.T.);
#498=EDGE_CURVE('',#399,#402,#218,.T.);
#499=EDGE_CURVE('',#403,#399,#39,.T.);
#500=EDGE_CURVE('',#404,#402,#40,.T.);
#501=EDGE_CURVE('',#403,#404,#219,.T.);
#502=EDGE_CURVE('',#405,#403,#220,.T.);
#503=EDGE_CURVE('',#406,#404,#221,.T.);
#504=EDGE_CURVE('',#405,#406,#222,.T.);
#505=EDGE_CURVE('',#407,#405,#41,.T.);
#506=EDGE_CURVE('',#408,#406,#42,.T.);
#507=EDGE_CURVE('',#407,#408,#223,.T.);
#508=EDGE_CURVE('',#409,#407,#224,.T.);
#509=EDGE_CURVE('',#410,#408,#225,.T.);
#510=EDGE_CURVE('',#409,#410,#226,.T.);
#511=EDGE_CURVE('',#411,#409,#43,.T.);
#512=EDGE_CURVE('',#412,#410,#44,.T.);
#513=EDGE_CURVE('',#411,#412,#227,.T.);
#514=EDGE_CURVE('',#413,#411,#228,.T.);
#515=EDGE_CURVE('',#414,#412,#229,.T.);
#516=EDGE_CURVE('',#413,#414,#230,.T.);
#517=EDGE_CURVE('',#400,#413,#45,.T.);
#518=EDGE_CURVE('',#401,#414,#46,.T.);
#519=EDGE_CURVE('',#415,#415,#47,.T.);
#520=EDGE_CURVE('',#415,#416,#231,.T.);
#521=EDGE_CURVE('',#416,#416,#48,.T.);
#522=EDGE_CURVE('',#417,#417,#49,.T.);
#523=EDGE_CURVE('',#417,#418,#232,.T.);
#524=EDGE_CURVE('',#418,#418,#50,.T.);
#525=EDGE_CURVE('',#419,#419,#51,.T.);
#526=EDGE_CURVE('',#419,#420,#233,.T.);
#527=EDGE_CURVE('',#420,#420,#52,.T.);
#528=EDGE_CURVE('',#421,#422,#234,.T.);
#529=EDGE_CURVE('',#422,#423,#235,.T.);
#530=EDGE_CURVE('',#424,#423,#236,.T.);
#531=EDGE_CURVE('',#421,#424,#237,.T.);
#532=EDGE_CURVE('',#425,#421,#53,.T.);
#533=EDGE_CURVE('',#426,#424,#54,.T.);
#534=EDGE_CURVE('',#425,#426,#238,.T.);
#535=EDGE_CURVE('',#427,#425,#239,.T.);
#536=EDGE_CURVE('',#428,#426,#240,.T.);
#537=EDGE_CURVE('',#427,#428,#241,.T.);
#538=EDGE_CURVE('',#429,#427,#55,.T.);
#539=EDGE_CURVE('',#430,#428,#56,.T.);
#540=EDGE_CURVE('',#429,#430,#242,.T.);
#541=EDGE_CURVE('',#431,#429,#243,.T.);
#542=EDGE_CURVE('',#432,#430,#244,.T.);
#543=EDGE_CURVE('',#431,#432,#245,.T.);
#544=EDGE_CURVE('',#433,#431,#57,.T.);
#545=EDGE_CURVE('',#434,#432,#58,.T.);
#546=EDGE_CURVE('',#433,#434,#246,.T.);
#547=EDGE_CURVE('',#435,#433,#247,.T.);
#548=EDGE_CURVE('',#436,#434,#248,.T.);
#549=EDGE_CURVE('',#435,#436,#249,.T.);
#550=EDGE_CURVE('',#422,#435,#59,.T.);
#551=EDGE_CURVE('',#423,#436,#60,.T.);
#552=EDGE_CURVE('',#437,#437,#61,.T.);
#553=EDGE_CURVE('',#437,#438,#250,.T.);
#554=EDGE_CURVE('',#438,#438,#62,.T.);
#555=EDGE_CURVE('',#439,#440,#251,.T.);
#556=EDGE_CURVE('',#440,#441,#252,.T.);
#557=EDGE_CURVE('',#442,#441,#253,.T.);
#558=EDGE_CURVE('',#439,#442,#254,.T.);
#559=EDGE_CURVE('',#443,#439,#63,.T.);
#560=EDGE_CURVE('',#444,#442,#64,.T.);
#561=EDGE_CURVE('',#443,#444,#255,.T.);
#562=EDGE_CURVE('',#445,#443,#256,.T.);
#563=EDGE_CURVE('',#446,#444,#257,.T.);
#564=EDGE_CURVE('',#445,#446,#258,.T.);
#565=EDGE_CURVE('',#447,#445,#65,.T.);
#566=EDGE_CURVE('',#448,#446,#66,.T.);
#567=EDGE_CURVE('',#447,#448,#259,.T.);
#568=EDGE_CURVE('',#449,#447,#260,.T.);
#569=EDGE_CURVE('',#450,#448,#261,.T.);
#570=EDGE_CURVE('',#449,#450,#262,.T.);
#571=EDGE_CURVE('',#451,#449,#67,.T.);
#572=EDGE_CURVE('',#452,#450,#68,.T.);
#573=EDGE_CURVE('',#451,#452,#263,.T.);
#574=EDGE_CURVE('',#453,#451,#264,.T.);
#575=EDGE_CURVE('',#454,#452,#265,.T.);
#576=EDGE_CURVE('',#453,#454,#266,.T.);
#577=EDGE_CURVE('',#440,#453,#69,.T.);
#578=EDGE_CURVE('',#441,#454,#70,.T.);
#579=EDGE_CURVE('',#455,#456,#267,.T.);
#580=EDGE_CURVE('',#455,#457,#268,.T.);
#581=EDGE_CURVE('',#458,#457,#269,.T.);
#582=EDGE_CURVE('',#456,#458,#270,.T.);
#583=EDGE_CURVE('',#456,#459,#271,.T.);
#584=EDGE_CURVE('',#460,#458,#272,.T.);
#585=EDGE_CURVE('',#459,#460,#273,.T.);
#586=EDGE_CURVE('',#459,#461,#274,.T.);
#587=EDGE_CURVE('',#462,#460,#275,.T.);
#588=EDGE_CURVE('',#461,#462,#276,.T.);
#589=EDGE_CURVE('',#461,#463,#277,.T.);
#590=EDGE_CURVE('',#464,#462,#278,.T.);
#591=EDGE_CURVE('',#463,#464,#279,.T.);
#592=EDGE_CURVE('',#463,#465,#280,.T.);
#593=EDGE_CURVE('',#466,#464,#281,.T.);
#594=EDGE_CURVE('',#465,#466,#282,.T.);
#595=EDGE_CURVE('',#467,#465,#283,.T.);
#596=EDGE_CURVE('',#468,#466,#284,.T.);
#597=EDGE_CURVE('',#467,#468,#285,.T.);
#598=EDGE_CURVE('',#469,#467,#286,.T.);
#599=EDGE_CURVE('',#470,#468,#287,.T.);
#600=EDGE_CURVE('',#469,#470,#288,.T.);
#601=EDGE_CURVE('',#455,#469,#289,.T.);
#602=EDGE_CURVE('',#457,#470,#290,.T.);
#603=ORIENTED_EDGE('',*,*,#471,.T.);
#604=ORIENTED_EDGE('',*,*,#472,.T.);
#605=ORIENTED_EDGE('',*,*,#473,.F.);
#606=ORIENTED_EDGE('',*,*,#474,.F.);
#607=ORIENTED_EDGE('',*,*,#475,.T.);
#608=ORIENTED_EDGE('',*,*,#474,.T.);
#609=ORIENTED_EDGE('',*,*,#476,.F.);
#610=ORIENTED_EDGE('',*,*,#477,.F.);
#611=ORIENTED_EDGE('',*,*,#478,.T.);
#612=ORIENTED_EDGE('',*,*,#477,.T.);
#613=ORIENTED_EDGE('',*,*,#479,.F.);
#614=ORIENTED_EDGE('',*,*,#480,.F.);
#615=ORIENTED_EDGE('',*,*,#481,.T.);
#616=ORIENTED_EDGE('',*,*,#480,.T.);
#617=ORIENTED_EDGE('',*,*,#482,.F.);
#618=ORIENTED_EDGE('',*,*,#483,.F.);
#619=ORIENTED_EDGE('',*,*,#484,.T.);
#620=ORIENTED_EDGE('',*,*,#483,.T.);
#621=ORIENTED_EDGE('',*,*,#485,.F.);
#622=ORIENTED_EDGE('',*,*,#486,.F.);
#623=ORIENTED_EDGE('',*,*,#487,.T.);
#624=ORIENTED_EDGE('',*,*,#486,.T.);
#625=ORIENTED_EDGE('',*,*,#488,.F.);
#626=ORIENTED_EDGE('',*,*,#489,.F.);
#627=ORIENTED_EDGE('',*,*,#490,.T.);
#628=ORIENTED_EDGE('',*,*,#489,.T.);
#629=ORIENTED_EDGE('',*,*,#491,.F.);
#630=ORIENTED_EDGE('',*,*,#492,.F.);
#631=ORIENTED_EDGE('',*,*,#493,.T.);
#632=ORIENTED_EDGE('',*,*,#492,.T.);
#633=ORIENTED_EDGE('',*,*,#494,.F.);
#634=ORIENTED_EDGE('',*,*,#472,.F.);
#635=ORIENTED_EDGE('',*,*,#495,.T.);
#636=ORIENTED_EDGE('',*,*,#496,.T.);
#637=ORIENTED_EDGE('',*,*,#497,.F.);
#638=ORIENTED_EDGE('',*,*,#498,.F.);
#639=ORIENTED_EDGE('',*,*,#499,.T.);
#640=ORIENTED_EDGE('',*,*,#498,.T.);
#641=ORIENTED_EDGE('',*,*,#500,.F.);
#642=ORIENTED_EDGE('',*,*,#501,.F.);
#643=ORIENTED_EDGE('',*,*,#502,.T.);
#644=ORIENTED_EDGE('',*,*,#501,.T.);
#645=ORIENTED_EDGE('',*,*,#503,.F.);
#646=ORIENTED_EDGE('',*,*,#504,.F.);
#647=ORIENTED_EDGE('',*,*,#505,.T.);
#648=ORIENTED_EDGE('',*,*,#504,.T.);
#649=ORIENTED_EDGE('',*,*,#506,.F.);
#650=ORIENTED_EDGE('',*,*,#507,.F.);
#651=ORIENTED_EDGE('',*,*,#508,.T.);
#652=ORIENTED_EDGE('',*,*,#507,.T.);
#653=ORIENTED_EDGE('',*,*,#509,.F.);
#654=ORIENTED_EDGE('',*,*,#510,.F.);
#655=ORIENTED_EDGE('',*,*,#511,.T.);
#656=ORIENTED_EDGE('',*,*,#510,.T.);
#657=ORIENTED_EDGE('',*,*,#512,.F.);
#658=ORIENTED_EDGE('',*,*,#513,.F.);
#659=ORIENTED_EDGE('',*,*,#514,.T.);
#660=ORIENTED_EDGE('',*,*,#513,.T.);
#661=ORIENTED_EDGE('',*,*,#515,.F.);
#662=ORIENTED_EDGE('',*,*,#516,.F.);
#663=ORIENTED_EDGE('',*,*,#517,.T.);
#664=ORIENTED_EDGE('',*,*,#516,.T.);
#665=ORIENTED_EDGE('',*,*,#518,.F.);
#666=ORIENTED_EDGE('',*,*,#496,.F.);
#667=ORIENTED_EDGE('',*,*,#519,.F.);
#668=ORIENTED_EDGE('',*,*,#520,.T.);
#669=ORIENTED_EDGE('',*,*,#521,.T.);
#670=ORIENTED_EDGE('',*,*,#520,.F.);
#671=ORIENTED_EDGE('',*,*,#522,.F.);
#672=ORIENTED_EDGE('',*,*,#523,.T.);
#673=ORIENTED_EDGE('',*,*,#524,.T.);
#674=ORIENTED_EDGE('',*,*,#523,.F.);
#675=ORIENTED_EDGE('',*,*,#525,.F.);
#676=ORIENTED_EDGE('',*,*,#526,.T.);
#677=ORIENTED_EDGE('',*,*,#527,.T.);
#678=ORIENTED_EDGE('',*,*,#526,.F.);
#679=ORIENTED_EDGE('',*,*,#528,.T.);
#680=ORIENTED_EDGE('',*,*,#529,.T.);
#681=ORIENTED_EDGE('',*,*,#530,.F.);
#682=ORIENTED_EDGE('',*,*,#531,.F.);
#683=ORIENTED_EDGE('',*,*,#532,.T.);
#684=ORIENTED_EDGE('',*,*,#531,.T.);
#685=ORIENTED_EDGE('',*,*,#533,.F.);
#686=ORIENTED_EDGE('',*,*,#534,.F.);
#687=ORIENTED_EDGE('',*,*,#535,.T.);
#688=ORIENTED_EDGE('',*,*,#534,.T.);
#689=ORIENTED_EDGE('',*,*,#536,.F.);
#690=ORIENTED_EDGE('',*,*,#537,.F.);
#691=ORIENTED_EDGE('',*,*,#538,.T.);
#692=ORIENTED_EDGE('',*,*,#537,.T.);
#693=ORIENTED_EDGE('',*,*,#539,.F.);
#694=ORIENTED_EDGE('',*,*,#540,.F.);
#695=ORIENTED_EDGE('',*,*,#541,.T.);
#696=ORIENTED_EDGE('',*,*,#540,.T.);
#697=ORIENTED_EDGE('',*,*,#542,.F.);
#698=ORIENTED_EDGE('',*,*,#543,.F.);
#699=ORIENTED_EDGE('',*,*,#544,.T.);
#700=ORIENTED_EDGE('',*,*,#543,.T.);
#701=ORIENTED_EDGE('',*,*,#545,.F.);
#702=ORIENTED_EDGE('',*,*,#546,.F.);
#703=ORIENTED_EDGE('',*,*,#547,.T.);
#704=ORIENTED_EDGE('',*,*,#546,.T.);
#705=ORIENTED_EDGE('',*,*,#548,.F.);
#706=ORIENTED_EDGE('',*,*,#549,.F.);
#707=ORIENTED_EDGE('',*,*,#550,.T.);
#708=ORIENTED_EDGE('',*,*,#549,.T.);
#709=ORIENTED_EDGE('',*,*,#551,.F.);
#710=ORIENTED_EDGE('',*,*,#529,.F.);
#711=ORIENTED_EDGE('',*,*,#552,.F.);
#712=ORIENTED_EDGE('',*,*,#553,.T.);
#713=ORIENTED_EDGE('',*,*,#554,.T.);
#714=ORIENTED_EDGE('',*,*,#553,.F.);
#715=ORIENTED_EDGE('',*,*,#555,.T.);
#716=ORIENTED_EDGE('',*,*,#556,.T.);
#717=ORIENTED_EDGE('',*,*,#557,.F.);
#718=ORIENTED_EDGE('',*,*,#558,.F.);
#719=ORIENTED_EDGE('',*,*,#559,.T.);
#720=ORIENTED_EDGE('',*,*,#558,.T.);
#721=ORIENTED_EDGE('',*,*,#560,.F.);
#722=ORIENTED_EDGE('',*,*,#561,.F.);
#723=ORIENTED_EDGE('',*,*,#562,.T.);
#724=ORIENTED_EDGE('',*,*,#561,.T.);
#725=ORIENTED_EDGE('',*,*,#563,.F.);
#726=ORIENTED_EDGE('',*,*,#564,.F.);
#727=ORIENTED_EDGE('',*,*,#565,.T.);
#728=ORIENTED_EDGE('',*,*,#564,.T.);
#729=ORIENTED_EDGE('',*,*,#566,.F.);
#730=ORIENTED_EDGE('',*,*,#567,.F.);
#731=ORIENTED_EDGE('',*,*,#568,.T.);
#732=ORIENTED_EDGE('',*,*,#567,.T.);
#733=ORIENTED_EDGE('',*,*,#569,.F.);
#734=ORIENTED_EDGE('',*,*,#570,.F.);
#735=ORIENTED_EDGE('',*,*,#571,.T.);
#736=ORIENTED_EDGE('',*,*,#570,.T.);
#737=ORIENTED_EDGE('',*,*,#572,.F.);
#738=ORIENTED_EDGE('',*,*,#573,.F.);
#739=ORIENTED_EDGE('',*,*,#574,.T.);
#740=ORIENTED_EDGE('',*,*,#573,.T.);
#741=ORIENTED_EDGE('',*,*,#575,.F.);
#742=ORIENTED_EDGE('',*,*,#576,.F.);
#743=ORIENTED_EDGE('',*,*,#577,.T.);
#744=ORIENTED_EDGE('',*,*,#576,.T.);
#745=ORIENTED_EDGE('',*,*,#578,.F.);
#746=ORIENTED_EDGE('',*,*,#556,.F.);
#747=ORIENTED_EDGE('',*,*,#579,.F.);
#748=ORIENTED_EDGE('',*,*,#580,.T.);
#749=ORIENTED_EDGE('',*,*,#581,.F.);
#750=ORIENTED_EDGE('',*,*,#582,.F.);
#751=ORIENTED_EDGE('',*,*,#583,.F.);
#752=ORIENTED_EDGE('',*,*,#582,.T.);
#753=ORIENTED_EDGE('',*,*,#584,.F.);
#754=ORIENTED_EDGE('',*,*,#585,.F.);
#755=ORIENTED_EDGE('',*,*,#586,.F.);
#756=ORIENTED_EDGE('',*,*,#585,.T.);
#757=ORIENTED_EDGE('',*,*,#587,.F.);
#758=ORIENTED_EDGE('',*,*,#588,.F.);
#759=ORIENTED_EDGE('',*,*,#589,.F.);
#760=ORIENTED_EDGE('',*,*,#588,.T.);
#761=ORIENTED_EDGE('',*,*,#590,.F.);
#762=ORIENTED_EDGE('',*,*,#591,.F.);
#763=ORIENTED_EDGE('',*,*,#592,.F.);
#764=ORIENTED_EDGE('',*,*,#591,.T.);
#765=ORIENTED_EDGE('',*,*,#593,.F.);
#766=ORIENTED_EDGE('',*,*,#594,.F.);
#767=ORIENTED_EDGE('',*,*,#595,.T.);
#768=ORIENTED_EDGE('',*,*,#594,.T.);
#769=ORIENTED_EDGE('',*,*,#596,.F.);
#770=ORIENTED_EDGE('',*,*,#597,.F.);
#771=ORIENTED_EDGE('',*,*,#598,.T.);
#772=ORIENTED_EDGE('',*,*,#597,.T.);
#773=ORIENTED_EDGE('',*,*,#599,.F.);
#774=ORIENTED_EDGE('',*,*,#600,.F.);
#775=ORIENTED_EDGE('',*,*,#601,.T.);
#776=ORIENTED_EDGE('',*,*,#600,.T.);
#777=ORIENTED_EDGE('',*,*,#602,.F.);
#778=ORIENTED_EDGE('',*,*,#580,.F.);
#779=ORIENTED_EDGE('',*,*,#602,.T.);
#780=ORIENTED_EDGE('',*,*,#599,.T.);
#781=ORIENTED_EDGE('',*,*,#596,.T.);
#782=ORIENTED_EDGE('',*,*,#593,.T.);
#783=ORIENTED_EDGE('',*,*,#590,.T.);
#784=ORIENTED_EDGE('',*,*,#587,.T.);
#785=ORIENTED_EDGE('',*,*,#584,.T.);
#786=ORIENTED_EDGE('',*,*,#581,.T.);
#787=ORIENTED_EDGE('',*,*,#578,.T.);
#788=ORIENTED_EDGE('',*,*,#575,.T.);
#789=ORIENTED_EDGE('',*,*,#572,.T.);
#790=ORIENTED_EDGE('',*,*,#569,.T.);
#791=ORIENTED_EDGE('',*,*,#566,.T.);
#792=ORIENTED_EDGE('',*,*,#563,.T.);
#793=ORIENTED_EDGE('',*,*,#560,.T.);
#794=ORIENTED_EDGE('',*,*,#557,.T.);
#795=ORIENTED_EDGE('',*,*,#552,.T.);
#796=ORIENTED_EDGE('',*,*,#551,.T.);
#797=ORIENTED_EDGE('',*,*,#548,.T.);
#798=ORIENTED_EDGE('',*,*,#545,.T.);
#799=ORIENTED_EDGE('',*,*,#542,.T.);
#800=ORIENTED_EDGE('',*,*,#539,.T.);
#801=ORIENTED_EDGE('',*,*,#536,.T.);
#802=ORIENTED_EDGE('',*,*,#533,.T.);
#803=ORIENTED_EDGE('',*,*,#530,.T.);
#804=ORIENTED_EDGE('',*,*,#525,.T.);
#805=ORIENTED_EDGE('',*,*,#522,.T.);
#806=ORIENTED_EDGE('',*,*,#519,.T.);
#807=ORIENTED_EDGE('',*,*,#518,.T.);
#808=ORIENTED_EDGE('',*,*,#515,.T.);
#809=ORIENTED_EDGE('',*,*,#512,.T.);
#810=ORIENTED_EDGE('',*,*,#509,.T.);
#811=ORIENTED_EDGE('',*,*,#506,.T.);
#812=ORIENTED_EDGE('',*,*,#503,.T.);
#813=ORIENTED_EDGE('',*,*,#500,.T.);
#814=ORIENTED_EDGE('',*,*,#497,.T.);
#815=ORIENTED_EDGE('',*,*,#494,.T.);
#816=ORIENTED_EDGE('',*,*,#491,.T.);
#817=ORIENTED_EDGE('',*,*,#488,.T.);
#818=ORIENTED_EDGE('',*,*,#485,.T.);
#819=ORIENTED_EDGE('',*,*,#482,.T.);
#820=ORIENTED_EDGE('',*,*,#479,.T.);
#821=ORIENTED_EDGE('',*,*,#476,.T.);
#822=ORIENTED_EDGE('',*,*,#473,.T.);
#823=ORIENTED_EDGE('',*,*,#601,.F.);
#824=ORIENTED_EDGE('',*,*,#579,.T.);
#825=ORIENTED_EDGE('',*,*,#583,.T.);
#826=ORIENTED_EDGE('',*,*,#586,.T.);
#827=ORIENTED_EDGE('',*,*,#589,.T.);
#828=ORIENTED_EDGE('',*,*,#592,.T.);
#829=ORIENTED_EDGE('',*,*,#595,.F.);
#830=ORIENTED_EDGE('',*,*,#598,.F.);
#831=ORIENTED_EDGE('',*,*,#577,.F.);
#832=ORIENTED_EDGE('',*,*,#555,.F.);
#833=ORIENTED_EDGE('',*,*,#559,.F.);
#834=ORIENTED_EDGE('',*,*,#562,.F.);
#835=ORIENTED_EDGE('',*,*,#565,.F.);
#836=ORIENTED_EDGE('',*,*,#568,.F.);
#837=ORIENTED_EDGE('',*,*,#571,.F.);
#838=ORIENTED_EDGE('',*,*,#574,.F.);
#839=ORIENTED_EDGE('',*,*,#554,.F.);
#840=ORIENTED_EDGE('',*,*,#550,.F.);
#841=ORIENTED_EDGE('',*,*,#528,.F.);
#842=ORIENTED_EDGE('',*,*,#532,.F.);
#843=ORIENTED_EDGE('',*,*,#535,.F.);
#844=ORIENTED_EDGE('',*,*,#538,.F.);
#845=ORIENTED_EDGE('',*,*,#541,.F.);
#846=ORIENTED_EDGE('',*,*,#544,.F.);
#847=ORIENTED_EDGE('',*,*,#547,.F.);
#848=ORIENTED_EDGE('',*,*,#527,.F.);
#849=ORIENTED_EDGE('',*,*,#524,.F.);
#850=ORIENTED_EDGE('',*,*,#521,.F.);
#851=ORIENTED_EDGE('',*,*,#517,.F.);
#852=ORIENTED_EDGE('',*,*,#495,.F.);
#853=ORIENTED_EDGE('',*,*,#499,.F.);
#854=ORIENTED_EDGE('',*,*,#502,.F.);
#855=ORIENTED_EDGE('',*,*,#505,.F.);
#856=ORIENTED_EDGE('',*,*,#508,.F.);
#857=ORIENTED_EDGE('',*,*,#511,.F.);
#858=ORIENTED_EDGE('',*,*,#514,.F.);
#859=ORIENTED_EDGE('',*,*,#493,.F.);
#860=ORIENTED_EDGE('',*,*,#471,.F.);
#861=ORIENTED_EDGE('',*,*,#475,.F.);
#862=ORIENTED_EDGE('',*,*,#478,.F.);
#863=ORIENTED_EDGE('',*,*,#481,.F.);
#864=ORIENTED_EDGE('',*,*,#484,.F.);
#865=ORIENTED_EDGE('',*,*,#487,.F.);
#866=ORIENTED_EDGE('',*,*,#490,.F.);
#867=PLANE('',#953);
#868=PLANE('',#957);
#869=PLANE('',#961);
#870=PLANE('',#965);
#871=PLANE('',#969);
#872=PLANE('',#973);
#873=PLANE('',#977);
#874=PLANE('',#981);
#875=PLANE('',#994);
#876=PLANE('',#998);
#877=PLANE('',#1002);
#878=PLANE('',#1006);
#879=PLANE('',#1013);
#880=PLANE('',#1017);
#881=PLANE('',#1021);
#882=PLANE('',#1025);
#883=PLANE('',#1029);
#884=PLANE('',#1030);
#885=PLANE('',#1031);
#886=PLANE('',#1032);
#887=PLANE('',#1033);
#888=PLANE('',#1034);
#889=PLANE('',#1035);
#890=PLANE('',#1036);
#891=PLANE('',#1037);
#892=PLANE('',#1038);
#893=ADVANCED_FACE('',(#91),#867,.T.);
#894=ADVANCED_FACE('',(#92),#71,.F.);
#895=ADVANCED_FACE('',(#93),#868,.T.);
#896=ADVANCED_FACE('',(#94),#72,.F.);
#897=ADVANCED_FACE('',(#95),#869,.T.);
#898=ADVANCED_FACE('',(#96),#73,.F.);
#899=ADVANCED_FACE('',(#97),#870,.T.);
#900=ADVANCED_FACE('',(#98),#74,.F.);
#901=ADVANCED_FACE('',(#99),#871,.T.);
#902=ADVANCED_FACE('',(#100),#75,.F.);
#903=ADVANCED_FACE('',(#101),#872,.T.);
#904=ADVANCED_FACE('',(#102),#76,.F.);
#905=ADVANCED_FACE('',(#103),#873,.T.);
#906=ADVANCED_FACE('',(#104),#77,.F.);
#907=ADVANCED_FACE('',(#105),#874,.T.);
#908=ADVANCED_FACE('',(#106),#78,.F.);
#909=ADVANCED_FACE('',(#107),#79,.F.);
#910=ADVANCED_FACE('',(#108),#80,.F.);
#911=ADVANCED_FACE('',(#109),#81,.F.);
#912=ADVANCED_FACE('',(#110),#875,.T.);
#913=ADVANCED_FACE('',(#111),#82,.F.);
#914=ADVANCED_FACE('',(#112),#876,.T.);
#915=ADVANCED_FACE('',(#113),#83,.F.);
#916=ADVANCED_FACE('',(#114),#877,.T.);
#917=ADVANCED_FACE('',(#115),#84,.F.);
#918=ADVANCED_FACE('',(#116),#878,.T.);
#919=ADVANCED_FACE('',(#117),#85,.F.);
#920=ADVANCED_FACE('',(#118),#86,.F.);
#921=ADVANCED_FACE('',(#119),#879,.T.);
#922=ADVANCED_FACE('',(#120),#87,.F.);
#923=ADVANCED_FACE('',(#121),#880,.T.);
#924=ADVANCED_FACE('',(#122),#88,.F.);
#925=ADVANCED_FACE('',(#123),#881,.T.);
#926=ADVANCED_FACE('',(#124),#89,.F.);
#927=ADVANCED_FACE('',(#125),#882,.T.);
#928=ADVANCED_FACE('',(#126),#90,.F.);
#929=ADVANCED_FACE('',(#127),#883,.T.);
#930=ADVANCED_FACE('',(#128),#884,.T.);
#931=ADVANCED_FACE('',(#129),#885,.T.);
#932=ADVANCED_FACE('',(#130),#886,.T.);
#933=ADVANCED_FACE('',(#131),#887,.T.);
#934=ADVANCED_FACE('',(#132),#888,.T.);
#935=ADVANCED_FACE('',(#133),#889,.T.);
#936=ADVANCED_FACE('',(#134),#890,.T.);
#937=ADVANCED_FACE('',(#135,#15,#16,#17,#18,#19,#20,#21,#22),#891,.T.);
#938=ADVANCED_FACE('',(#136,#23,#24,#25,#26,#27,#28,#29,#30),#892,.F.);
#939=CLOSED_SHELL('',(#893,#894,#895,#896,#897,#898,#899,#900,#901,#902,
#903,#904,#905,#906,#907,#908,#909,#910,#911,#912,#913,#914,#915,#916,#917,
#918,#919,#920,#921,#922,#923,#924,#925,#926,#927,#928,#929,#930,#931,#932,
#933,#934,#935,#936,#937,#938));
#940=DERIVED_UNIT_ELEMENT(#942,1.);
#941=DERIVED_UNIT_ELEMENT(#1577,-3.);
#942=(
MASS_UNIT()
NAMED_UNIT(*)
SI_UNIT(.KILO.,.GRAM.)
);
#943=DERIVED_UNIT((#940,#941));
#944=MEASURE_REPRESENTATION_ITEM('density measure',
POSITIVE_RATIO_MEASURE(7850.),#943);
#945=PROPERTY_DEFINITION_REPRESENTATION(#950,#947);
#946=PROPERTY_DEFINITION_REPRESENTATION(#951,#948);
#947=REPRESENTATION('material name',(#949),#1574);
#948=REPRESENTATION('density',(#944),#1574);
#949=DESCRIPTIVE_REPRESENTATION_ITEM('Steel','Steel');
#950=PROPERTY_DEFINITION('material property','material name',#1584);
#951=PROPERTY_DEFINITION('material property','density of part',#1584);
#952=AXIS2_PLACEMENT_3D('',#1305,#1039,#1040);
#953=AXIS2_PLACEMENT_3D('',#1306,#1041,#1042);
#954=AXIS2_PLACEMENT_3D('',#1315,#1047,#1048);
#955=AXIS2_PLACEMENT_3D('',#1317,#1049,#1050);
#956=AXIS2_PLACEMENT_3D('',#1319,#1051,#1052);
#957=AXIS2_PLACEMENT_3D('',#1321,#1054,#1055);
#958=AXIS2_PLACEMENT_3D('',#1327,#1059,#1060);
#959=AXIS2_PLACEMENT_3D('',#1329,#1061,#1062);
#960=AXIS2_PLACEMENT_3D('',#1331,#1063,#1064);
#961=AXIS2_PLACEMENT_3D('',#1333,#1066,#1067);
#962=AXIS2_PLACEMENT_3D('',#1339,#1071,#1072);
#963=AXIS2_PLACEMENT_3D('',#1341,#1073,#1074);
#964=AXIS2_PLACEMENT_3D('',#1343,#1075,#1076);
#965=AXIS2_PLACEMENT_3D('',#1345,#1078,#1079);
#966=AXIS2_PLACEMENT_3D('',#1351,#1083,#1084);
#967=AXIS2_PLACEMENT_3D('',#1352,#1085,#1086);
#968=AXIS2_PLACEMENT_3D('',#1353,#1087,#1088);
#969=AXIS2_PLACEMENT_3D('',#1354,#1089,#1090);
#970=AXIS2_PLACEMENT_3D('',#1363,#1095,#1096);
#971=AXIS2_PLACEMENT_3D('',#1365,#1097,#1098);
#972=AXIS2_PLACEMENT_3D('',#1367,#1099,#1100);
#973=AXIS2_PLACEMENT_3D('',#1369,#1102,#1103);
#974=AXIS2_PLACEMENT_3D('',#1375,#1107,#1108);
#975=AXIS2_PLACEMENT_3D('',#1377,#1109,#1110);
#976=AXIS2_PLACEMENT_3D('',#1379,#1111,#1112);
#977=AXIS2_PLACEMENT_3D('',#1381,#1114,#1115);
#978=AXIS2_PLACEMENT_3D('',#1387,#1119,#1120);
#979=AXIS2_PLACEMENT_3D('',#1389,#1121,#1122);
#980=AXIS2_PLACEMENT_3D('',#1391,#1123,#1124);
#981=AXIS2_PLACEMENT_3D('',#1393,#1126,#1127);
#982=AXIS2_PLACEMENT_3D('',#1399,#1131,#1132);
#983=AXIS2_PLACEMENT_3D('',#1400,#1133,#1134);
#984=AXIS2_PLACEMENT_3D('',#1401,#1135,#1136);
#985=AXIS2_PLACEMENT_3D('',#1402,#1137,#1138);
#986=AXIS2_PLACEMENT_3D('',#1404,#1139,#1140);
#987=AXIS2_PLACEMENT_3D('',#1407,#1142,#1143);
#988=AXIS2_PLACEMENT_3D('',#1408,#1144,#1145);
#989=AXIS2_PLACEMENT_3D('',#1410,#1146,#1147);
#990=AXIS2_PLACEMENT_3D('',#1413,#1149,#1150);
#991=AXIS2_PLACEMENT_3D('',#1414,#1151,#1152);
#992=AXIS2_PLACEMENT_3D('',#1416,#1153,#1154);
#993=AXIS2_PLACEMENT_3D('',#1419,#1156,#1157);
#994=AXIS2_PLACEMENT_3D('',#1420,#1158,#1159);
#995=AXIS2_PLACEMENT_3D('',#1429,#1164,#1165);
#996=AXIS2_PLACEMENT_3D('',#1431,#1166,#1167);
#997=AXIS2_PLACEMENT_3D('',#1433,#1168,#1169);
#998=AXIS2_PLACEMENT_3D('',#1435,#1171,#1172);
#999=AXIS2_PLACEMENT_3D('',#1441,#1176,#1177);
#1000=AXIS2_PLACEMENT_3D('',#1443,#1178,#1179);
#1001=AXIS2_PLACEMENT_3D('',#1445,#1180,#1181);
#1002=AXIS2_PLACEMENT_3D('',#1447,#1183,#1184);
#1003=AXIS2_PLACEMENT_3D('',#1453,#1188,#1189);
#1004=AXIS2_PLACEMENT_3D('',#1455,#1190,#1191);
#1005=AXIS2_PLACEMENT_3D('',#1457,#1192,#1193);
#1006=AXIS2_PLACEMENT_3D('',#1459,#1195,#1196);
#1007=AXIS2_PLACEMENT_3D('',#1465,#1200,#1201);
#1008=AXIS2_PLACEMENT_3D('',#1466,#1202,#1203);
#1009=AXIS2_PLACEMENT_3D('',#1467,#1204,#1205);
#1010=AXIS2_PLACEMENT_3D('',#1468,#1206,#1207);
#1011=AXIS2_PLACEMENT_3D('',#1470,#1208,#1209);
#1012=AXIS2_PLACEMENT_3D('',#1473,#1211,#1212);
#1013=AXIS2_PLACEMENT_3D('',#1474,#1213,#1214);
#1014=AXIS2_PLACEMENT_3D('',#1483,#1219,#1220);
#1015=AXIS2_PLACEMENT_3D('',#1485,#1221,#1222);
#1016=AXIS2_PLACEMENT_3D('',#1487,#1223,#1224);
#1017=AXIS2_PLACEMENT_3D('',#1489,#1226,#1227);
#1018=AXIS2_PLACEMENT_3D('',#1495,#1231,#1232);
#1019=AXIS2_PLACEMENT_3D('',#1497,#1233,#1234);
#1020=AXIS2_PLACEMENT_3D('',#1499,#1235,#1236);
#1021=AXIS2_PLACEMENT_3D('',#1501,#1238,#1239);
#1022=AXIS2_PLACEMENT_3D('',#1507,#1243,#1244);
#1023=AXIS2_PLACEMENT_3D('',#1509,#1245,#1246);
#1024=AXIS2_PLACEMENT_3D('',#1511,#1247,#1248);
#1025=AXIS2_PLACEMENT_3D('',#1513,#1250,#1251);
#1026=AXIS2_PLACEMENT_3D('',#1519,#1255,#1256);
#1027=AXIS2_PLACEMENT_3D('',#1520,#1257,#1258);
#1028=AXIS2_PLACEMENT_3D('',#1521,#1259,#1260);
#1029=AXIS2_PLACEMENT_3D('',#1522,#1261,#1262);
#1030=AXIS2_PLACEMENT_3D('',#1531,#1267,#1268);
#1031=AXIS2_PLACEMENT_3D('',#1537,#1272,#1273);
#1032=AXIS2_PLACEMENT_3D('',#1543,#1277,#1278);
#1033=AXIS2_PLACEMENT_3D('',#1549,#1282,#1283);
#1034=AXIS2_PLACEMENT_3D('',#1555,#1287,#1288);
#1035=AXIS2_PLACEMENT_3D('',#1561,#1292,#1293);
#1036=AXIS2_PLACEMENT_3D('',#1567,#1297,#1298);
#1037=AXIS2_PLACEMENT_3D('',#1570,#1301,#1302);
#1038=AXIS2_PLACEMENT_3D('',#1571,#1303,#1304);
#1039=DIRECTION('axis',(0.,0.,1.));
#1040=DIRECTION('refdir',(1.,0.,0.));
#1041=DIRECTION('center_axis',(1.,0.,0.));
#1042=DIRECTION('ref_axis',(0.,1.,0.));
#1043=DIRECTION('',(0.,1.,0.));
#1044=DIRECTION('',(0.,0.,1.));
#1045=DIRECTION('',(0.,1.,0.));
#1046=DIRECTION('',(0.,0.,1.));
#1047=DIRECTION('center_axis',(0.,0.,1.));
#1048=DIRECTION('ref_axis',(-1.,0.,0.));
#1049=DIRECTION('center_axis',(0.,0.,-1.));
#1050=DIRECTION('ref_axis',(-1.,0.,0.));
#1051=DIRECTION('center_axis',(0.,0.,-1.));
#1052=DIRECTION('ref_axis',(-1.,0.,0.));
#1053=DIRECTION('',(0.,0.,1.));
#1054=DIRECTION('center_axis',(0.,1.,0.));
#1055=DIRECTION('ref_axis',(-1.,0.,0.));
#1056=DIRECTION('',(-1.,0.,0.));
#1057=DIRECTION('',(-1.,0.,0.));
#1058=DIRECTION('',(0.,0.,1.));
#1059=DIRECTION('center_axis',(0.,0.,1.));
#1060=DIRECTION('ref_axis',(0.,-1.,0.));
#1061=DIRECTION('center_axis',(0.,0.,-1.));
#1062=DIRECTION('ref_axis',(0.,-1.,0.));
#1063=DIRECTION('center_axis',(0.,0.,-1.));
#1064=DIRECTION('ref_axis',(0.,-1.,0.));
#1065=DIRECTION('',(0.,0.,1.));
#1066=DIRECTION('center_axis',(-1.,0.,0.));
#1067=DIRECTION('ref_axis',(0.,-1.,0.));
#1068=DIRECTION('',(0.,-1.,0.));
#1069=DIRECTION('',(0.,-1.,0.));
#1070=DIRECTION('',(0.,0.,1.));
#1071=DIRECTION('center_axis',(0.,0.,1.));
#1072=DIRECTION('ref_axis',(1.,0.,0.));
#1073=DIRECTION('center_axis',(0.,0.,-1.));
#1074=DIRECTION('ref_axis',(1.,0.,0.));
#1075=DIRECTION('center_axis',(0.,0.,-1.));
#1076=DIRECTION('ref_axis',(1.,0.,0.));
#1077=DIRECTION('',(0.,0.,1.));
#1078=DIRECTION('center_axis',(0.,-1.,0.));
#1079=DIRECTION('ref_axis',(1.,0.,0.));
#1080=DIRECTION('',(1.,0.,0.));
#1081=DIRECTION('',(1.,0.,0.));
#1082=DIRECTION('',(0.,0.,1.));
#1083=DIRECTION('center_axis',(0.,0.,1.));
#1084=DIRECTION('ref_axis',(0.,1.,0.));
#1085=DIRECTION('center_axis',(0.,0.,-1.));
#1086=DIRECTION('ref_axis',(0.,1.,0.));
#1087=DIRECTION('center_axis',(0.,0.,-1.));
#1088=DIRECTION('ref_axis',(0.,1.,0.));
#1089=DIRECTION('center_axis',(1.,0.,0.));
#1090=DIRECTION('ref_axis',(0.,1.,0.));
#1091=DIRECTION('',(0.,1.,0.));
#1092=DIRECTION('',(0.,0.,1.));
#1093=DIRECTION('',(0.,1.,0.));
#1094=DIRECTION('',(0.,0.,1.));
#1095=DIRECTION('center_axis',(0.,0.,1.));
#1096=DIRECTION('ref_axis',(-1.,0.,0.));
#1097=DIRECTION('center_axis',(0.,0.,-1.));
#1098=DIRECTION('ref_axis',(-1.,0.,0.));
#1099=DIRECTION('center_axis',(0.,0.,-1.));
#1100=DIRECTION('ref_axis',(-1.,0.,0.));
#1101=DIRECTION('',(0.,0.,1.));
#1102=DIRECTION('center_axis',(0.,1.,0.));
#1103=DIRECTION('ref_axis',(-1.,0.,0.));
#1104=DIRECTION('',(-1.,0.,0.));
#1105=DIRECTION('',(-1.,0.,0.));
#1106=DIRECTION('',(0.,0.,1.));
#1107=DIRECTION('center_axis',(0.,0.,1.));
#1108=DIRECTION('ref_axis',(0.,-1.,0.));
#1109=DIRECTION('center_axis',(0.,0.,-1.));
#1110=DIRECTION('ref_axis',(0.,-1.,0.));
#1111=DIRECTION('center_axis',(0.,0.,-1.));
#1112=DIRECTION('ref_axis',(0.,-1.,0.));
#1113=DIRECTION('',(0.,0.,1.));
#1114=DIRECTION('center_axis',(-1.,0.,0.));
#1115=DIRECTION('ref_axis',(0.,-1.,0.));
#1116=DIRECTION('',(0.,-1.,0.));
#1117=DIRECTION('',(0.,-1.,0.));
#1118=DIRECTION('',(0.,0.,1.));
#1119=DIRECTION('center_axis',(0.,0.,1.));
#1120=DIRECTION('ref_axis',(1.,0.,0.));
#1121=DIRECTION('center_axis',(0.,0.,-1.));
#1122=DIRECTION('ref_axis',(1.,0.,0.));
#1123=DIRECTION('center_axis',(0.,0.,-1.));
#1124=DIRECTION('ref_axis',(1.,0.,0.));
#1125=DIRECTION('',(0.,0.,1.));
#1126=DIRECTION('center_axis',(0.,-1.,0.));
#1127=DIRECTION('ref_axis',(1.,0.,0.));
#1128=DIRECTION('',(1.,0.,0.));
#1129=DIRECTION('',(1.,0.,0.));
#1130=DIRECTION('',(0.,0.,1.));
#1131=DIRECTION('center_axis',(0.,0.,1.));
#1132=DIRECTION('ref_axis',(0.,1.,0.));
#1133=DIRECTION('center_axis',(0.,0.,-1.));
#1134=DIRECTION('ref_axis',(0.,1.,0.));
#1135=DIRECTION('center_axis',(0.,0.,-1.));
#1136=DIRECTION('ref_axis',(0.,1.,0.));
#1137=DIRECTION('center_axis',(0.,0.,1.));
#1138=DIRECTION('ref_axis',(1.,0.,0.));
#1139=DIRECTION('center_axis',(0.,0.,-1.));
#1140=DIRECTION('ref_axis',(1.,0.,0.));
#1141=DIRECTION('',(0.,0.,-1.));
#1142=DIRECTION('center_axis',(0.,0.,-1.));
#1143=DIRECTION('ref_axis',(1.,0.,0.));
#1144=DIRECTION('center_axis',(0.,0.,1.));
#1145=DIRECTION('ref_axis',(1.,0.,0.));
#1146=DIRECTION('center_axis',(0.,0.,-1.));
#1147=DIRECTION('ref_axis',(1.,0.,0.));
#1148=DIRECTION('',(0.,0.,-1.));
#1149=DIRECTION('center_axis',(0.,0.,-1.));
#1150=DIRECTION('ref_axis',(1.,0.,0.));
#1151=DIRECTION('center_axis',(0.,0.,1.));
#1152=DIRECTION('ref_axis',(1.,0.,0.));
#1153=DIRECTION('center_axis',(0.,0.,-1.));
#1154=DIRECTION('ref_axis',(1.,0.,0.));
#1155=DIRECTION('',(0.,0.,-1.));
#1156=DIRECTION('center_axis',(0.,0.,-1.));
#1157=DIRECTION('ref_axis',(1.,0.,0.));
#1158=DIRECTION('center_axis',(1.,0.,0.));
#1159=DIRECTION('ref_axis',(0.,1.,0.));
#1160=DIRECTION('',(0.,1.,0.));
#1161=DIRECTION('',(0.,0.,1.));
#1162=DIRECTION('',(0.,1.,0.));
#1163=DIRECTION('',(0.,0.,1.));
#1164=DIRECTION('center_axis',(0.,0.,1.));
#1165=DIRECTION('ref_axis',(-1.,0.,0.));
#1166=DIRECTION('center_axis',(0.,0.,-1.));
#1167=DIRECTION('ref_axis',(-1.,0.,0.));
#1168=DIRECTION('center_axis',(0.,0.,-1.));
#1169=DIRECTION('ref_axis',(-1.,0.,0.));
#1170=DIRECTION('',(0.,0.,1.));
#1171=DIRECTION('center_axis',(0.,1.,0.));
#1172=DIRECTION('ref_axis',(-1.,0.,0.));
#1173=DIRECTION('',(-1.,0.,0.));
#1174=DIRECTION('',(-1.,0.,0.));
#1175=DIRECTION('',(0.,0.,1.));
#1176=DIRECTION('center_axis',(0.,0.,1.));
#1177=DIRECTION('ref_axis',(0.,-1.,0.));
#1178=DIRECTION('center_axis',(0.,0.,-1.));
#1179=DIRECTION('ref_axis',(0.,-1.,0.));
#1180=DIRECTION('center_axis',(0.,0.,-1.));
#1181=DIRECTION('ref_axis',(0.,-1.,0.));
#1182=DIRECTION('',(0.,0.,1.));
#1183=DIRECTION('center_axis',(-1.,0.,0.));
#1184=DIRECTION('ref_axis',(0.,-1.,0.));
#1185=DIRECTION('',(0.,-1.,0.));
#1186=DIRECTION('',(0.,-1.,0.));
#1187=DIRECTION('',(0.,0.,1.));
#1188=DIRECTION('center_axis',(0.,0.,1.));
#1189=DIRECTION('ref_axis',(1.,0.,0.));
#1190=DIRECTION('center_axis',(0.,0.,-1.));
#1191=DIRECTION('ref_axis',(1.,0.,0.));
#1192=DIRECTION('center_axis',(0.,0.,-1.));
#1193=DIRECTION('ref_axis',(1.,0.,0.));
#1194=DIRECTION('',(0.,0.,1.));
#1195=DIRECTION('center_axis',(0.,-1.,0.));
#1196=DIRECTION('ref_axis',(1.,0.,0.));
#1197=DIRECTION('',(1.,0.,0.));
#1198=DIRECTION('',(1.,0.,0.));
#1199=DIRECTION('',(0.,0.,1.));
#1200=DIRECTION('center_axis',(0.,0.,1.));
#1201=DIRECTION('ref_axis',(0.,1.,0.));
#1202=DIRECTION('center_axis',(0.,0.,-1.));
#1203=DIRECTION('ref_axis',(0.,1.,0.));
#1204=DIRECTION('center_axis',(0.,0.,-1.));
#1205=DIRECTION('ref_axis',(0.,1.,0.));
#1206=DIRECTION('center_axis',(0.,0.,1.));
#1207=DIRECTION('ref_axis',(1.,0.,0.));
#1208=DIRECTION('center_axis',(0.,0.,-1.));
#1209=DIRECTION('ref_axis',(1.,0.,0.));
#1210=DIRECTION('',(0.,0.,-1.));
#1211=DIRECTION('center_axis',(0.,0.,-1.));
#1212=DIRECTION('ref_axis',(1.,0.,0.));
#1213=DIRECTION('center_axis',(1.,0.,0.));
#1214=DIRECTION('ref_axis',(0.,1.,0.));
#1215=DIRECTION('',(0.,1.,0.));
#1216=DIRECTION('',(0.,0.,1.));
#1217=DIRECTION('',(0.,1.,0.));
#1218=DIRECTION('',(0.,0.,1.));
#1219=DIRECTION('center_axis',(0.,0.,1.));
#1220=DIRECTION('ref_axis',(-1.,0.,0.));
#1221=DIRECTION('center_axis',(0.,0.,-1.));
#1222=DIRECTION('ref_axis',(-1.,0.,0.));
#1223=DIRECTION('center_axis',(0.,0.,-1.));
#1224=DIRECTION('ref_axis',(-1.,0.,0.));
#1225=DIRECTION('',(0.,0.,1.));
#1226=DIRECTION('center_axis',(0.,1.,0.));
#1227=DIRECTION('ref_axis',(-1.,0.,0.));
#1228=DIRECTION('',(-1.,0.,0.));
#1229=DIRECTION('',(-1.,0.,0.));
#1230=DIRECTION('',(0.,0.,1.));
#1231=DIRECTION('center_axis',(0.,0.,1.));
#1232=DIRECTION('ref_axis',(0.,-1.,0.));
#1233=DIRECTION('center_axis',(0.,0.,-1.));
#1234=DIRECTION('ref_axis',(0.,-1.,0.));
#1235=DIRECTION('center_axis',(0.,0.,-1.));
#1236=DIRECTION('ref_axis',(0.,-1.,0.));
#1237=DIRECTION('',(0.,0.,1.));
#1238=DIRECTION('center_axis',(-1.,0.,0.));
#1239=DIRECTION('ref_axis',(0.,-1.,0.));
#1240=DIRECTION('',(0.,-1.,0.));
#1241=DIRECTION('',(0.,-1.,0.));
#1242=DIRECTION('',(0.,0.,1.));
#1243=DIRECTION('center_axis',(0.,0.,1.));
#1244=DIRECTION('ref_axis',(1.,0.,0.));
#1245=DIRECTION('center_axis',(0.,0.,-1.));
#1246=DIRECTION('ref_axis',(1.,0.,0.));
#1247=DIRECTION('center_axis',(0.,0.,-1.));
#1248=DIRECTION('ref_axis',(1.,0.,0.));
#1249=DIRECTION('',(0.,0.,1.));
#1250=DIRECTION('center_axis',(0.,-1.,0.));
#1251=DIRECTION('ref_axis',(1.,0.,0.));
#1252=DIRECTION('',(1.,0.,0.));
#1253=DIRECTION('',(1.,0.,0.));
#1254=DIRECTION('',(0.,0.,1.));
#1255=DIRECTION('center_axis',(0.,0.,1.));
#1256=DIRECTION('ref_axis',(0.,1.,0.));
#1257=DIRECTION('center_axis',(0.,0.,-1.));
#1258=DIRECTION('ref_axis',(0.,1.,0.));
#1259=DIRECTION('center_axis',(0.,0.,-1.));
#1260=DIRECTION('ref_axis',(0.,1.,0.));
#1261=DIRECTION('center_axis',(0.,1.,0.));
#1262=DIRECTION('ref_axis',(-1.,0.,0.));
#1263=DIRECTION('',(1.,0.,0.));
#1264=DIRECTION('',(0.,0.,1.));
#1265=DIRECTION('',(-1.,0.,0.));
#1266=DIRECTION('',(0.,0.,1.));
#1267=DIRECTION('center_axis',(1.,0.,0.));
#1268=DIRECTION('ref_axis',(0.,1.,0.));
#1269=DIRECTION('',(0.,-1.,0.));
#1270=DIRECTION('',(0.,1.,0.));
#1271=DIRECTION('',(0.,0.,1.));
#1272=DIRECTION('center_axis',(0.,-1.,0.));
#1273=DIRECTION('ref_axis',(1.,0.,0.));
#1274=DIRECTION('',(-1.,0.,0.));
#1275=DIRECTION('',(1.,0.,0.));
#1276=DIRECTION('',(0.,0.,1.));
#1277=DIRECTION('center_axis',(-1.,0.,0.));
#1278=DIRECTION('ref_axis',(0.,-1.,0.));
#1279=DIRECTION('',(0.,1.,0.));
#1280=DIRECTION('',(0.,-1.,0.));
#1281=DIRECTION('',(0.,0.,1.));
#1282=DIRECTION('center_axis',(0.,1.,0.));
#1283=DIRECTION('ref_axis',(-1.,0.,0.));
#1284=DIRECTION('',(1.,0.,0.));
#1285=DIRECTION('',(-1.,0.,0.));
#1286=DIRECTION('',(0.,0.,1.));
#1287=DIRECTION('center_axis',(1.,0.,0.));
#1288=DIRECTION('ref_axis',(0.,1.,0.));
#1289=DIRECTION('',(0.,1.,0.));
#1290=DIRECTION('',(0.,1.,0.));
#1291=DIRECTION('',(0.,0.,1.));
#1292=DIRECTION('center_axis',(0.,1.,0.));
#1293=DIRECTION('ref_axis',(-1.,0.,0.));
#1294=DIRECTION('',(-1.,0.,0.));
#1295=DIRECTION('',(-1.,0.,0.));
#1296=DIRECTION('',(0.,0.,1.));
#1297=DIRECTION('center_axis',(-1.,0.,0.));
#1298=DIRECTION('ref_axis',(0.,-1.,0.));
#1299=DIRECTION('',(0.,-1.,0.));
#1300=DIRECTION('',(0.,-1.,0.));
#1301=DIRECTION('center_axis',(0.,0.,1.));
#1302=DIRECTION('ref_axis',(1.,0.,0.));
#1303=DIRECTION('center_axis',(0.,0.,1.));
#1304=DIRECTION('ref_axis',(1.,0.,0.));
#1305=CARTESIAN_POINT('',(0.,0.,0.));
#1306=CARTESIAN_POINT('Origin',(21.575,-35.075,0.));
#1307=CARTESIAN_POINT('',(21.575,-35.075,0.));
#1308=CARTESIAN_POINT('',(21.575,-22.075,0.));
#1309=CARTESIAN_POINT('',(21.575,-22.075,0.));
#1310=CARTESIAN_POINT('',(21.575,-22.075,1.5));
#1311=CARTESIAN_POINT('',(21.575,-22.075,0.));
#1312=CARTESIAN_POINT('',(21.575,-35.075,1.5));
#1313=CARTESIAN_POINT('',(21.575,-22.075,1.5));
#1314=CARTESIAN_POINT('',(21.575,-35.075,0.));
#1315=CARTESIAN_POINT('Origin',(22.075,-35.075,0.));
#1316=CARTESIAN_POINT('',(22.075,-35.575,0.));
#1317=CARTESIAN_POINT('Origin',(22.075,-35.075,0.));
#1318=CARTESIAN_POINT('',(22.075,-35.575,1.5));
#1319=CARTESIAN_POINT('Origin',(22.075,-35.075,1.5));
#1320=CARTESIAN_POINT('',(22.075,-35.575,0.));
#1321=CARTESIAN_POINT('Origin',(35.075,-35.575,0.));
#1322=CARTESIAN_POINT('',(35.075,-35.575,0.));
#1323=CARTESIAN_POINT('',(22.075,-35.575,0.));
#1324=CARTESIAN_POINT('',(35.075,-35.575,1.5));
#1325=CARTESIAN_POINT('',(22.075,-35.575,1.5));
#1326=CARTESIAN_POINT('',(35.075,-35.575,0.));
#1327=CARTESIAN_POINT('Origin',(35.075,-35.075,0.));
#1328=CARTESIAN_POINT('',(35.575,-35.075,0.));
#1329=CARTESIAN_POINT('Origin',(35.075,-35.075,0.));
#1330=CARTESIAN_POINT('',(35.575,-35.075,1.5));
#1331=CARTESIAN_POINT('Origin',(35.075,-35.075,1.5));
#1332=CARTESIAN_POINT('',(35.575,-35.075,0.));
#1333=CARTESIAN_POINT('Origin',(35.575,-22.075,0.));
#1334=CARTESIAN_POINT('',(35.575,-22.075,0.));
#1335=CARTESIAN_POINT('',(35.575,-22.075,0.));
#1336=CARTESIAN_POINT('',(35.575,-22.075,1.5));
#1337=CARTESIAN_POINT('',(35.575,-22.075,1.5));
#1338=CARTESIAN_POINT('',(35.575,-22.075,0.));
#1339=CARTESIAN_POINT('Origin',(35.075,-22.075,0.));
#1340=CARTESIAN_POINT('',(35.075,-21.575,0.));
#1341=CARTESIAN_POINT('Origin',(35.075,-22.075,0.));
#1342=CARTESIAN_POINT('',(35.075,-21.575,1.5));
#1343=CARTESIAN_POINT('Origin',(35.075,-22.075,1.5));
#1344=CARTESIAN_POINT('',(35.075,-21.575,0.));
#1345=CARTESIAN_POINT('Origin',(22.075,-21.575,0.));
#1346=CARTESIAN_POINT('',(22.075,-21.575,0.));
#1347=CARTESIAN_POINT('',(22.075,-21.575,0.));
#1348=CARTESIAN_POINT('',(22.075,-21.575,1.5));
#1349=CARTESIAN_POINT('',(22.075,-21.575,1.5));
#1350=CARTESIAN_POINT('',(22.075,-21.575,0.));
#1351=CARTESIAN_POINT('Origin',(22.075,-22.075,0.));
#1352=CARTESIAN_POINT('Origin',(22.075,-22.075,0.));
#1353=CARTESIAN_POINT('Origin',(22.075,-22.075,1.5));
#1354=CARTESIAN_POINT('Origin',(21.575,-54.125,0.));
#1355=CARTESIAN_POINT('',(21.575,-54.125,0.));
#1356=CARTESIAN_POINT('',(21.575,-41.125,0.));
#1357=CARTESIAN_POINT('',(21.575,-41.125,0.));
#1358=CARTESIAN_POINT('',(21.575,-41.125,1.5));
#1359=CARTESIAN_POINT('',(21.575,-41.125,0.));
#1360=CARTESIAN_POINT('',(21.575,-54.125,1.5));
#1361=CARTESIAN_POINT('',(21.575,-41.125,1.5));
#1362=CARTESIAN_POINT('',(21.575,-54.125,0.));
#1363=CARTESIAN_POINT('Origin',(22.075,-54.125,0.));
#1364=CARTESIAN_POINT('',(22.075,-54.625,0.));
#1365=CARTESIAN_POINT('Origin',(22.075,-54.125,0.));
#1366=CARTESIAN_POINT('',(22.075,-54.625,1.5));
#1367=CARTESIAN_POINT('Origin',(22.075,-54.125,1.5));
#1368=CARTESIAN_POINT('',(22.075,-54.625,0.));
#1369=CARTESIAN_POINT('Origin',(35.075,-54.625,0.));
#1370=CARTESIAN_POINT('',(35.075,-54.625,0.));
#1371=CARTESIAN_POINT('',(22.075,-54.625,0.));
#1372=CARTESIAN_POINT('',(35.075,-54.625,1.5));
#1373=CARTESIAN_POINT('',(22.075,-54.625,1.5));
#1374=CARTESIAN_POINT('',(35.075,-54.625,0.));
#1375=CARTESIAN_POINT('Origin',(35.075,-54.125,0.));
#1376=CARTESIAN_POINT('',(35.575,-54.125,0.));
#1377=CARTESIAN_POINT('Origin',(35.075,-54.125,0.));
#1378=CARTESIAN_POINT('',(35.575,-54.125,1.5));
#1379=CARTESIAN_POINT('Origin',(35.075,-54.125,1.5));
#1380=CARTESIAN_POINT('',(35.575,-54.125,0.));
#1381=CARTESIAN_POINT('Origin',(35.575,-41.125,0.));
#1382=CARTESIAN_POINT('',(35.575,-41.125,0.));
#1383=CARTESIAN_POINT('',(35.575,-41.125,0.));
#1384=CARTESIAN_POINT('',(35.575,-41.125,1.5));
#1385=CARTESIAN_POINT('',(35.575,-41.125,1.5));
#1386=CARTESIAN_POINT('',(35.575,-41.125,0.));
#1387=CARTESIAN_POINT('Origin',(35.075,-41.125,0.));
#1388=CARTESIAN_POINT('',(35.075,-40.625,0.));
#1389=CARTESIAN_POINT('Origin',(35.075,-41.125,0.));
#1390=CARTESIAN_POINT('',(35.075,-40.625,1.5));
#1391=CARTESIAN_POINT('Origin',(35.075,-41.125,1.5));
#1392=CARTESIAN_POINT('',(35.075,-40.625,0.));
#1393=CARTESIAN_POINT('Origin',(22.075,-40.625,0.));
#1394=CARTESIAN_POINT('',(22.075,-40.625,0.));
#1395=CARTESIAN_POINT('',(22.075,-40.625,0.));
#1396=CARTESIAN_POINT('',(22.075,-40.625,1.5));
#1397=CARTESIAN_POINT('',(22.075,-40.625,1.5));
#1398=CARTESIAN_POINT('',(22.075,-40.625,0.));
#1399=CARTESIAN_POINT('Origin',(22.075,-41.125,0.));
#1400=CARTESIAN_POINT('Origin',(22.075,-41.125,0.));
#1401=CARTESIAN_POINT('Origin',(22.075,-41.125,1.5));
#1402=CARTESIAN_POINT('Origin',(-6.259,-9.685,0.));
#1403=CARTESIAN_POINT('',(-7.959,-9.685,1.5));
#1404=CARTESIAN_POINT('Origin',(-6.259,-9.685,1.5));
#1405=CARTESIAN_POINT('',(-7.959,-9.685,0.));
#1406=CARTESIAN_POINT('',(-7.959,-9.685,0.));
#1407=CARTESIAN_POINT('Origin',(-6.259,-9.685,0.));
#1408=CARTESIAN_POINT('Origin',(67.541,-63.285,0.));
#1409=CARTESIAN_POINT('',(65.841,-63.285,1.5));
#1410=CARTESIAN_POINT('Origin',(67.541,-63.285,1.5));
#1411=CARTESIAN_POINT('',(65.841,-63.285,0.));
#1412=CARTESIAN_POINT('',(65.841,-63.285,0.));
#1413=CARTESIAN_POINT('Origin',(67.541,-63.285,0.));
#1414=CARTESIAN_POINT('Origin',(-6.259,-63.285,0.));
#1415=CARTESIAN_POINT('',(-7.959,-63.285,1.5));
#1416=CARTESIAN_POINT('Origin',(-6.259,-63.285,1.5));
#1417=CARTESIAN_POINT('',(-7.959,-63.285,0.));
#1418=CARTESIAN_POINT('',(-7.959,-63.285,0.));
#1419=CARTESIAN_POINT('Origin',(-6.259,-63.285,0.));
#1420=CARTESIAN_POINT('Origin',(2.525,-54.125,0.));
#1421=CARTESIAN_POINT('',(2.525,-54.125,0.));
#1422=CARTESIAN_POINT('',(2.525,-41.125,0.));
#1423=CARTESIAN_POINT('',(2.525,-41.125,0.));
#1424=CARTESIAN_POINT('',(2.525,-41.125,1.5));
#1425=CARTESIAN_POINT('',(2.525,-41.125,0.));
#1426=CARTESIAN_POINT('',(2.525,-54.125,1.5));
#1427=CARTESIAN_POINT('',(2.525,-41.125,1.5));
#1428=CARTESIAN_POINT('',(2.525,-54.125,0.));
#1429=CARTESIAN_POINT('Origin',(3.025,-54.125,0.));
#1430=CARTESIAN_POINT('',(3.025,-54.625,0.));
#1431=CARTESIAN_POINT('Origin',(3.025,-54.125,0.));
#1432=CARTESIAN_POINT('',(3.025,-54.625,1.5));
#1433=CARTESIAN_POINT('Origin',(3.025,-54.125,1.5));
#1434=CARTESIAN_POINT('',(3.025,-54.625,0.));
#1435=CARTESIAN_POINT('Origin',(16.025,-54.625,0.));
#1436=CARTESIAN_POINT('',(16.025,-54.625,0.));
#1437=CARTESIAN_POINT('',(3.025,-54.625,0.));
#1438=CARTESIAN_POINT('',(16.025,-54.625,1.5));
#1439=CARTESIAN_POINT('',(3.025,-54.625,1.5));
#1440=CARTESIAN_POINT('',(16.025,-54.625,0.));
#1441=CARTESIAN_POINT('Origin',(16.025,-54.125,0.));
#1442=CARTESIAN_POINT('',(16.525,-54.125,0.));
#1443=CARTESIAN_POINT('Origin',(16.025,-54.125,0.));
#1444=CARTESIAN_POINT('',(16.525,-54.125,1.5));
#1445=CARTESIAN_POINT('Origin',(16.025,-54.125,1.5));
#1446=CARTESIAN_POINT('',(16.525,-54.125,0.));
#1447=CARTESIAN_POINT('Origin',(16.525,-41.125,0.));
#1448=CARTESIAN_POINT('',(16.525,-41.125,0.));
#1449=CARTESIAN_POINT('',(16.525,-41.125,0.));
#1450=CARTESIAN_POINT('',(16.525,-41.125,1.5));
#1451=CARTESIAN_POINT('',(16.525,-41.125,1.5));
#1452=CARTESIAN_POINT('',(16.525,-41.125,0.));
#1453=CARTESIAN_POINT('Origin',(16.025,-41.125,0.));
#1454=CARTESIAN_POINT('',(16.025,-40.625,0.));
#1455=CARTESIAN_POINT('Origin',(16.025,-41.125,0.));
#1456=CARTESIAN_POINT('',(16.025,-40.625,1.5));
#1457=CARTESIAN_POINT('Origin',(16.025,-41.125,1.5));
#1458=CARTESIAN_POINT('',(16.025,-40.625,0.));
#1459=CARTESIAN_POINT('Origin',(3.025,-40.625,0.));
#1460=CARTESIAN_POINT('',(3.025,-40.625,0.));
#1461=CARTESIAN_POINT('',(3.025,-40.625,0.));
#1462=CARTESIAN_POINT('',(3.025,-40.625,1.5));
#1463=CARTESIAN_POINT('',(3.025,-40.625,1.5));
#1464=CARTESIAN_POINT('',(3.025,-40.625,0.));
#1465=CARTESIAN_POINT('Origin',(3.025,-41.125,0.));
#1466=CARTESIAN_POINT('Origin',(3.025,-41.125,0.));
#1467=CARTESIAN_POINT('Origin',(3.025,-41.125,1.5));
#1468=CARTESIAN_POINT('Origin',(67.541,-9.685,0.));
#1469=CARTESIAN_POINT('',(65.841,-9.685,1.5));
#1470=CARTESIAN_POINT('Origin',(67.541,-9.685,1.5));
#1471=CARTESIAN_POINT('',(65.841,-9.685,0.));
#1472=CARTESIAN_POINT('',(65.841,-9.685,0.));
#1473=CARTESIAN_POINT('Origin',(67.541,-9.685,0.));
#1474=CARTESIAN_POINT('Origin',(40.625,-54.125,0.));
#1475=CARTESIAN_POINT('',(40.625,-54.125,0.));
#1476=CARTESIAN_POINT('',(40.625,-41.125,0.));
#1477=CARTESIAN_POINT('',(40.625,-41.125,0.));
#1478=CARTESIAN_POINT('',(40.625,-41.125,1.5));
#1479=CARTESIAN_POINT('',(40.625,-41.125,0.));
#1480=CARTESIAN_POINT('',(40.625,-54.125,1.5));
#1481=CARTESIAN_POINT('',(40.625,-41.125,1.5));
#1482=CARTESIAN_POINT('',(40.625,-54.125,0.));
#1483=CARTESIAN_POINT('Origin',(41.125,-54.125,0.));
#1484=CARTESIAN_POINT('',(41.125,-54.625,0.));
#1485=CARTESIAN_POINT('Origin',(41.125,-54.125,0.));
#1486=CARTESIAN_POINT('',(41.125,-54.625,1.5));
#1487=CARTESIAN_POINT('Origin',(41.125,-54.125,1.5));
#1488=CARTESIAN_POINT('',(41.125,-54.625,0.));
#1489=CARTESIAN_POINT('Origin',(54.125,-54.625,0.));
#1490=CARTESIAN_POINT('',(54.125,-54.625,0.));
#1491=CARTESIAN_POINT('',(41.125,-54.625,0.));
#1492=CARTESIAN_POINT('',(54.125,-54.625,1.5));
#1493=CARTESIAN_POINT('',(41.125,-54.625,1.5));
#1494=CARTESIAN_POINT('',(54.125,-54.625,0.));
#1495=CARTESIAN_POINT('Origin',(54.125,-54.125,0.));
#1496=CARTESIAN_POINT('',(54.625,-54.125,0.));
#1497=CARTESIAN_POINT('Origin',(54.125,-54.125,0.));
#1498=CARTESIAN_POINT('',(54.625,-54.125,1.5));
#1499=CARTESIAN_POINT('Origin',(54.125,-54.125,1.5));
#1500=CARTESIAN_POINT('',(54.625,-54.125,0.));
#1501=CARTESIAN_POINT('Origin',(54.625,-41.125,0.));
#1502=CARTESIAN_POINT('',(54.625,-41.125,0.));
#1503=CARTESIAN_POINT('',(54.625,-41.125,0.));
#1504=CARTESIAN_POINT('',(54.625,-41.125,1.5));
#1505=CARTESIAN_POINT('',(54.625,-41.125,1.5));
#1506=CARTESIAN_POINT('',(54.625,-41.125,0.));
#1507=CARTESIAN_POINT('Origin',(54.125,-41.125,0.));
#1508=CARTESIAN_POINT('',(54.125,-40.625,0.));
#1509=CARTESIAN_POINT('Origin',(54.125,-41.125,0.));
#1510=CARTESIAN_POINT('',(54.125,-40.625,1.5));
#1511=CARTESIAN_POINT('Origin',(54.125,-41.125,1.5));
#1512=CARTESIAN_POINT('',(54.125,-40.625,0.));
#1513=CARTESIAN_POINT('Origin',(41.125,-40.625,0.));
#1514=CARTESIAN_POINT('',(41.125,-40.625,0.));
#1515=CARTESIAN_POINT('',(41.125,-40.625,0.));
#1516=CARTESIAN_POINT('',(41.125,-40.625,1.5));
#1517=CARTESIAN_POINT('',(41.125,-40.625,1.5));
#1518=CARTESIAN_POINT('',(41.125,-40.625,0.));
#1519=CARTESIAN_POINT('Origin',(41.125,-41.125,0.));
#1520=CARTESIAN_POINT('Origin',(41.125,-41.125,0.));
#1521=CARTESIAN_POINT('Origin',(41.125,-41.125,1.5));
#1522=CARTESIAN_POINT('Origin',(72.541,-4.685,0.));
#1523=CARTESIAN_POINT('',(59.157,-4.685,0.));
#1524=CARTESIAN_POINT('',(72.541,-4.685,0.));
#1525=CARTESIAN_POINT('',(-11.259,-4.685,0.));
#1526=CARTESIAN_POINT('',(59.157,-4.685,1.5));
#1527=CARTESIAN_POINT('',(59.157,-4.685,0.));
#1528=CARTESIAN_POINT('',(72.541,-4.685,1.5));
#1529=CARTESIAN_POINT('',(-11.259,-4.685,1.5));
#1530=CARTESIAN_POINT('',(72.541,-4.685,0.));
#1531=CARTESIAN_POINT('Origin',(72.541,-68.285,0.));
#1532=CARTESIAN_POINT('',(72.541,-68.285,0.));
#1533=CARTESIAN_POINT('',(72.541,-4.685,0.));
#1534=CARTESIAN_POINT('',(72.541,-68.285,1.5));
#1535=CARTESIAN_POINT('',(72.541,-4.685,1.5));
#1536=CARTESIAN_POINT('',(72.541,-68.285,0.));
#1537=CARTESIAN_POINT('Origin',(-11.259,-68.285,0.));
#1538=CARTESIAN_POINT('',(-11.259,-68.285,0.));
#1539=CARTESIAN_POINT('',(72.541,-68.285,0.));
#1540=CARTESIAN_POINT('',(-11.259,-68.285,1.5));
#1541=CARTESIAN_POINT('',(72.541,-68.285,1.5));
#1542=CARTESIAN_POINT('',(-11.259,-68.285,0.));
#1543=CARTESIAN_POINT('Origin',(-11.259,-4.685,0.));
#1544=CARTESIAN_POINT('',(-11.259,-4.685,0.));
#1545=CARTESIAN_POINT('',(-11.259,-68.285,0.));
#1546=CARTESIAN_POINT('',(-11.259,-4.685,1.5));
#1547=CARTESIAN_POINT('',(-11.259,-68.285,1.5));
#1548=CARTESIAN_POINT('',(-11.259,-4.685,0.));
#1549=CARTESIAN_POINT('Origin',(40.657,-4.685,0.));
#1550=CARTESIAN_POINT('',(40.657,-4.685,0.));
#1551=CARTESIAN_POINT('',(-11.259,-4.685,0.));
#1552=CARTESIAN_POINT('',(40.657,-4.685,1.5));
#1553=CARTESIAN_POINT('',(-11.259,-4.685,1.5));
#1554=CARTESIAN_POINT('',(40.657,-4.685,0.));
#1555=CARTESIAN_POINT('Origin',(40.657,-35.685,0.));
#1556=CARTESIAN_POINT('',(40.657,-35.685,0.));
#1557=CARTESIAN_POINT('',(40.657,-35.685,0.));
#1558=CARTESIAN_POINT('',(40.657,-35.685,1.5));
#1559=CARTESIAN_POINT('',(40.657,-35.685,1.5));
#1560=CARTESIAN_POINT('',(40.657,-35.685,0.));
#1561=CARTESIAN_POINT('Origin',(59.157,-35.685,0.));
#1562=CARTESIAN_POINT('',(59.157,-35.685,0.));
#1563=CARTESIAN_POINT('',(59.157,-35.685,0.));
#1564=CARTESIAN_POINT('',(59.157,-35.685,1.5));
#1565=CARTESIAN_POINT('',(59.157,-35.685,1.5));
#1566=CARTESIAN_POINT('',(59.157,-35.685,0.));
#1567=CARTESIAN_POINT('Origin',(59.157,-4.685,0.));
#1568=CARTESIAN_POINT('',(59.157,-4.685,0.));
#1569=CARTESIAN_POINT('',(59.157,-4.685,1.5));
#1570=CARTESIAN_POINT('Origin',(30.641,-36.485,1.5));
#1571=CARTESIAN_POINT('Origin',(30.641,-36.485,0.));
#1572=UNCERTAINTY_MEASURE_WITH_UNIT(LENGTH_MEASURE(0.01),#1576,
'DISTANCE_ACCURACY_VALUE',
'Maximum model space distance between geometric entities at asserted c
onnectivities');
#1573=UNCERTAINTY_MEASURE_WITH_UNIT(LENGTH_MEASURE(0.01),#1576,
'DISTANCE_ACCURACY_VALUE',
'Maximum model space distance between geometric entities at asserted c
onnectivities');
#1574=(
GEOMETRIC_REPRESENTATION_CONTEXT(3)
GLOBAL_UNCERTAINTY_ASSIGNED_CONTEXT((#1572))
GLOBAL_UNIT_ASSIGNED_CONTEXT((#1576,#1578,#1579))
REPRESENTATION_CONTEXT('','3D')
);
#1575=(
GEOMETRIC_REPRESENTATION_CONTEXT(3)
GLOBAL_UNCERTAINTY_ASSIGNED_CONTEXT((#1573))
GLOBAL_UNIT_ASSIGNED_CONTEXT((#1576,#1578,#1579))
REPRESENTATION_CONTEXT('','3D')
);
#1576=(
LENGTH_UNIT()
NAMED_UNIT(*)
SI_UNIT(.MILLI.,.METRE.)
);
#1577=(
LENGTH_UNIT()
NAMED_UNIT(*)
SI_UNIT($,.METRE.)
);
#1578=(
NAMED_UNIT(*)
PLANE_ANGLE_UNIT()
SI_UNIT($,.RADIAN.)
);
#1579=(
NAMED_UNIT(*)
SI_UNIT($,.STERADIAN.)
SOLID_ANGLE_UNIT()
);
#1580=SHAPE_DEFINITION_REPRESENTATION(#1581,#1582);
#1581=PRODUCT_DEFINITION_SHAPE('',$,#1584);
#1582=SHAPE_REPRESENTATION('',(#952),#1574);
#1583=PRODUCT_DEFINITION_CONTEXT('part definition',#1588,'design');
#1584=PRODUCT_DEFINITION('2026-08-29-15-55-27-114','HackpadTop',#1585,#1583);
#1585=PRODUCT_DEFINITION_FORMATION('',$,#1590);
#1586=PRODUCT_RELATED_PRODUCT_CATEGORY('HackpadTop','HackpadTop',(#1590));
#1587=APPLICATION_PROTOCOL_DEFINITION('international standard',
'automotive_design',2009,#1588);
#1588=APPLICATION_CONTEXT(
'Core Data for Automotive Mechanical Design Process');
#1589=PRODUCT_CONTEXT('part definition',#1588,'mechanical');
#1590=PRODUCT('2026-08-29-15-55-27-114','HackpadTop',$,(#1589));
#1591=PRESENTATION_STYLE_ASSIGNMENT((#1592));
#1592=SURFACE_STYLE_USAGE(.BOTH.,#1593);
#1593=SURFACE_SIDE_STYLE('',(#1594));
#1594=SURFACE_STYLE_FILL_AREA(#1595);
#1595=FILL_AREA_STYLE('Steel - Satin',(#1596));
#1596=FILL_AREA_STYLE_COLOUR('Steel - Satin',#1597);
#1597=COLOUR_RGB('Steel - Satin',0.627450980392157,0.627450980392157,0.627450980392157);
ENDSEC;
END-ISO-10303-21;
