M48
; DRILL file KiCad 10.0.3 date 2026-09-19T14:13:31
; FORMAT={-:-/ absolute / metric / decimal}
; #@! TF.CreationDate,2026-09-19T14:13:31-04:00
; #@! TF.GenerationSoftware,Kicad,Pcbnew,10.0.3
; #@! TF.FileFunction,Plated,1,2,PTH
FMAT,2
METRIC
; #@! TA.AperFunction,Plated,PTH,ViaDrill
T1C0.300
; #@! TA.AperFunction,Plated,PTH,ComponentDrill
T2C1.000
; #@! TA.AperFunction,Plated,PTH,ComponentDrill
T3C1.500
%
G90
G05
T1
X137.0Y-110.4
X137.2Y-106.0
X137.2Y-107.2
X140.4Y-110.4
X156.0Y-120.8
X158.0Y-124.8
X159.2Y-120.8
X165.2Y-122.0
X169.8Y-125.4
X170.8Y-117.4
X171.0Y-122.8
X175.6Y-125.4
X176.8Y-117.4
X177.8Y-121.6
T2
X163.344Y-104.299
X163.344Y-106.839
X163.344Y-109.379
X163.344Y-111.919
X163.344Y-114.459
X163.344Y-116.999
X163.344Y-119.539
X178.594Y-104.299
X178.594Y-106.839
X178.594Y-109.379
X178.594Y-111.919
X178.594Y-114.459
X178.594Y-116.999
X178.594Y-119.539
T3
X127.159Y-130.81
X133.509Y-128.27
X146.209Y-111.76
X146.209Y-130.81
X152.559Y-109.22
X152.559Y-128.27
X165.259Y-130.81
X171.609Y-128.27
M30
