%TF.GenerationSoftware,KiCad,Pcbnew,10.0.3*%
%TF.CreationDate,2026-09-19T14:13:40-04:00*%
%TF.ProjectId,hackpad,6861636b-7061-4642-9e6b-696361645f70,rev?*%
%TF.SameCoordinates,Original*%
%TF.FileFunction,Copper,L1,Top*%
%TF.FilePolarity,Positive*%
%FSLAX46Y46*%
G04 Gerber Fmt 4.6, Leading zero omitted, Abs format (unit mm)*
G04 Created by KiCad (PCBNEW 10.0.3) date 2026-09-19 14:13:40*
%MOMM*%
%LPD*%
G01*
G04 APERTURE LIST*
%TA.AperFunction,ComponentPad*%
%ADD10C,2.200000*%
%TD*%
%TA.AperFunction,SMDPad,CuDef*%
%ADD11R,1.600000X0.850000*%
%TD*%
%TA.AperFunction,ComponentPad*%
%ADD12R,3.500000X1.700000*%
%TD*%
%TA.AperFunction,ComponentPad*%
%ADD13O,3.600000X1.700000*%
%TD*%
%TA.AperFunction,ComponentPad*%
%ADD14O,3.700000X1.700000*%
%TD*%
%TA.AperFunction,ViaPad*%
%ADD15C,0.600000*%
%TD*%
%TA.AperFunction,Conductor*%
%ADD16C,0.200000*%
%TD*%
G04 APERTURE END LIST*
D10*
%TO.P,SW3,1,1_1*%
%TO.N,GND*%
X152558750Y-128270000D03*
%TO.P,SW3,2,2_2*%
%TO.N,Net-(U1-PA5_A9_D9_MISO)*%
X146208750Y-130810000D03*
%TD*%
D11*
%TO.P,D2,1,DOUT_1*%
%TO.N,unconnected-(D2-DOUT-Pad1)*%
X129218750Y-115806250D03*
%TO.P,D2,2,VSS_2*%
%TO.N,GND*%
X129218750Y-117556250D03*
%TO.P,D2,3,DIN_3*%
%TO.N,Net-(D1-DOUT)*%
X132718750Y-117556250D03*
%TO.P,D2,4,VDD_4*%
%TO.N,Net-(D1-VDD)*%
X132718750Y-115806250D03*
%TD*%
D10*
%TO.P,SW2,1,1_1*%
%TO.N,GND*%
X133508750Y-128270000D03*
%TO.P,SW2,2,2_2*%
%TO.N,Net-(U1-PA7_A8_D8_SCK)*%
X127158750Y-130810000D03*
%TD*%
D12*
%TO.P,U1,1,PA02_A0_D0_1*%
%TO.N,unconnected-(U1-PA02_A0_D0-Pad1)*%
X162343750Y-104298750D03*
D13*
%TO.P,U1,2,PA4_A1_D1_2*%
%TO.N,unconnected-(U1-PA4_A1_D1-Pad2)*%
X162343750Y-106838750D03*
%TO.P,U1,3,PA10_A2_D2_3*%
%TO.N,unconnected-(U1-PA10_A2_D2-Pad3)*%
X162343750Y-109378750D03*
%TO.P,U1,4,PA11_A3_D3_4*%
%TO.N,unconnected-(U1-PA11_A3_D3-Pad4)*%
X162343750Y-111918750D03*
%TO.P,U1,5,PA8_A4_D4_SDA_5*%
%TO.N,Net-(D1-DIN)*%
X162343750Y-114458750D03*
%TO.P,U1,6,PA9_A5_D5_SCL_6*%
%TO.N,unconnected-(U1-PA9_A5_D5_SCL-Pad6)*%
X162343750Y-116998750D03*
%TO.P,U1,7,PB08_A6_D6_TX_7*%
%TO.N,unconnected-(U1-PB08_A6_D6_TX-Pad7)*%
X162343750Y-119538750D03*
%TO.P,U1,8,PB09_A7_D7_RX_8*%
%TO.N,Net-(U1-PB09_A7_D7_RX)*%
X179593750Y-119538750D03*
%TO.P,U1,9,PA7_A8_D8_SCK_9*%
%TO.N,Net-(U1-PA7_A8_D8_SCK)*%
X179593750Y-116998750D03*
%TO.P,U1,10,PA5_A9_D9_MISO_10*%
%TO.N,Net-(U1-PA5_A9_D9_MISO)*%
X179593750Y-114458750D03*
D14*
%TO.P,U1,11,PA6_A10_D10_MOSI_11*%
%TO.N,Net-(U1-PA6_A10_D10_MOSI)*%
X179593750Y-111918750D03*
%TO.P,U1,12,3V3_12*%
%TO.N,unconnected-(U1-3V3-Pad12)*%
X179593750Y-109378750D03*
%TO.P,U1,13,GND_13*%
%TO.N,GND*%
X179593750Y-106838750D03*
%TO.P,U1,14,5V_14*%
%TO.N,Net-(D1-VDD)*%
X179593750Y-104298750D03*
%TD*%
D11*
%TO.P,D1,1,DOUT_1*%
%TO.N,Net-(D1-DOUT)*%
X129218750Y-108662500D03*
%TO.P,D1,2,VSS_2*%
%TO.N,GND*%
X129218750Y-110412500D03*
%TO.P,D1,3,DIN_3*%
%TO.N,Net-(D1-DIN)*%
X132718750Y-110412500D03*
%TO.P,D1,4,VDD_4*%
%TO.N,Net-(D1-VDD)*%
X132718750Y-108662500D03*
%TD*%
D10*
%TO.P,SW1,1,1_1*%
%TO.N,GND*%
X152558750Y-109220000D03*
%TO.P,SW1,2,2_2*%
%TO.N,Net-(U1-PB09_A7_D7_RX)*%
X146208750Y-111760000D03*
%TD*%
%TO.P,SW4,1,1_1*%
%TO.N,GND*%
X171608750Y-128270000D03*
%TO.P,SW4,2,2_2*%
%TO.N,Net-(U1-PA6_A10_D10_MOSI)*%
X165258750Y-130810000D03*
%TD*%
D15*
%TO.N,Net-(D1-VDD)*%
X137200000Y-107200000D03*
X137200000Y-106000000D03*
%TO.N,Net-(D1-DIN)*%
X140400000Y-110400000D03*
X137000000Y-110400000D03*
%TO.N,Net-(U1-PB09_A7_D7_RX)*%
X156000000Y-120800000D03*
X159200000Y-120800000D03*
X177800000Y-121600000D03*
X171000000Y-122800000D03*
%TO.N,Net-(U1-PA7_A8_D8_SCK)*%
X176800000Y-117400000D03*
X170800000Y-117400000D03*
X158000000Y-124800000D03*
X165200000Y-122000000D03*
%TO.N,Net-(U1-PA5_A9_D9_MISO)*%
X175600000Y-125400000D03*
X169800000Y-125400000D03*
%TD*%
%TO.N,GND*%
D16*
X133508750Y-128270000D02*
X137778750Y-124000000D01*
X131262500Y-119600000D02*
X135662500Y-124000000D01*
X155930000Y-128270000D02*
X160200000Y-124000000D01*
X137778750Y-124000000D02*
X160200000Y-124000000D01*
X127987500Y-110412500D02*
X124400000Y-114000000D01*
X129218750Y-110412500D02*
X127987500Y-110412500D01*
X160200000Y-124000000D02*
X171608750Y-124000000D01*
X171608750Y-113823750D02*
X178593750Y-106838750D01*
X129218750Y-117556250D02*
X131262500Y-119600000D01*
X124400000Y-119600000D02*
X131262500Y-119600000D01*
X124400000Y-114000000D02*
X124400000Y-119600000D01*
X152558750Y-116358750D02*
X160200000Y-124000000D01*
X171608750Y-128270000D02*
X171608750Y-124000000D01*
X171608750Y-124000000D02*
X171608750Y-113823750D01*
X152558750Y-109220000D02*
X152558750Y-116358750D01*
X152558750Y-128270000D02*
X155930000Y-128270000D01*
X135662500Y-124000000D02*
X137778750Y-124000000D01*
%TO.N,Net-(D1-DOUT)*%
X131281250Y-106600000D02*
X139200000Y-106600000D01*
X129218750Y-108662500D02*
X131281250Y-106600000D01*
X139200000Y-116200000D02*
X137843750Y-117556250D01*
X139200000Y-106600000D02*
X139200000Y-116200000D01*
X137843750Y-117556250D02*
X132718750Y-117556250D01*
%TO.N,Net-(D1-VDD)*%
X177443750Y-103148750D02*
X138251250Y-103148750D01*
X137600000Y-111800000D02*
X137600000Y-108400000D01*
X137200000Y-107200000D02*
X137200000Y-108000000D01*
X137200000Y-108000000D02*
X137600000Y-108400000D01*
X137137500Y-108662500D02*
X132718750Y-108662500D01*
X138200000Y-106000000D02*
X137200000Y-106000000D01*
X132718750Y-115806250D02*
X133593750Y-115806250D01*
X138200000Y-103200000D02*
X138200000Y-106000000D01*
X137400000Y-108400000D02*
X137137500Y-108662500D01*
X137600000Y-108400000D02*
X137400000Y-108400000D01*
X178593750Y-104298750D02*
X177443750Y-103148750D01*
X138251250Y-103148750D02*
X138200000Y-103200000D01*
X133593750Y-115806250D02*
X137600000Y-111800000D01*
%TO.N,Net-(D1-DIN)*%
X136987500Y-110412500D02*
X137000000Y-110400000D01*
X141800000Y-105600000D02*
X158400000Y-105600000D01*
X159000000Y-106200000D02*
X159000000Y-114600000D01*
X132718750Y-110412500D02*
X136987500Y-110412500D01*
X158400000Y-105600000D02*
X159000000Y-106200000D01*
X140400000Y-107000000D02*
X141800000Y-105600000D01*
X159000000Y-114600000D02*
X163202500Y-114600000D01*
X140400000Y-110400000D02*
X140400000Y-107000000D01*
X163202500Y-114600000D02*
X163343750Y-114458750D01*
%TO.N,Net-(U1-PB09_A7_D7_RX)*%
X177800000Y-121600000D02*
X177800000Y-120332500D01*
X146208750Y-113813402D02*
X153195348Y-120800000D01*
X153195348Y-120800000D02*
X156000000Y-120800000D01*
X161200000Y-122800000D02*
X171000000Y-122800000D01*
X177800000Y-120332500D02*
X178593750Y-119538750D01*
X159200000Y-120800000D02*
X161200000Y-122800000D01*
X146208750Y-111760000D02*
X146208750Y-113813402D01*
%TO.N,Net-(U1-PA7_A8_D8_SCK)*%
X150165348Y-124800000D02*
X158000000Y-124800000D01*
X176800000Y-117400000D02*
X178192500Y-117400000D01*
X144155348Y-130810000D02*
X150165348Y-124800000D01*
X169800000Y-117400000D02*
X170800000Y-117400000D01*
X165200000Y-122000000D02*
X169800000Y-117400000D01*
X178192500Y-117400000D02*
X178593750Y-116998750D01*
X127158750Y-130810000D02*
X144155348Y-130810000D01*
%TO.N,Net-(U1-PA5_A9_D9_MISO)*%
X175600000Y-117452500D02*
X178593750Y-114458750D01*
X159820000Y-125400000D02*
X169800000Y-125400000D01*
X146208750Y-130810000D02*
X154410000Y-130810000D01*
X154410000Y-130810000D02*
X159820000Y-125400000D01*
X175600000Y-125400000D02*
X175600000Y-117452500D01*
%TO.N,Net-(U1-PA6_A10_D10_MOSI)*%
X174190000Y-130810000D02*
X174800000Y-130200000D01*
X165258750Y-130810000D02*
X174190000Y-130810000D01*
X174800000Y-115712500D02*
X178593750Y-111918750D01*
X174800000Y-130200000D02*
X174800000Y-115712500D01*
%TD*%
M02*
